<svg width="666" height="286" viewBox="0 0 666 286" fill="none" xmlns="http://www.w3.org/2000/svg">
<path fill-rule="evenodd" clip-rule="evenodd" d="M61 185.238V143.432L137.795 22.5886H205.089V142.406H226.897V185.238H205.089V214.823H153.037V185.238H61ZM138.589 24.035H203.643V143.852H225.452V183.792H203.643V213.376H154.483V183.792H62.4457V143.852L138.589 24.035ZM114.773 142.406H154.146V79.9464L114.773 142.406ZM113.085 142.373L154.113 77.2872H155.592V143.852H113.085V142.373ZM383.764 193.29C369.016 210.701 347.729 220.047 321.623 220C295.473 219.953 274.119 210.538 259.35 193.117C244.604 175.725 236.551 150.509 236.644 119.071C236.737 87.5931 244.79 62.8098 259.5 45.8756C274.234 28.9142 295.497 20 321.626 20C347.71 20 369.042 28.9617 383.82 45.944C398.577 62.9011 406.654 87.6858 406.607 119.078C406.561 150.649 398.486 175.91 383.764 193.29ZM301.004 162.146C306.164 171.197 313.34 175.319 321.626 175.319C329.911 175.319 337.063 171.198 342.212 162.147C347.406 153.018 350.536 138.885 350.49 119.079C350.444 99.7347 347.315 85.9752 342.15 77.1021C337.033 68.3118 329.929 64.3111 321.626 64.3111C313.324 64.3111 306.243 68.3104 301.137 77.101C295.983 85.9752 292.854 99.7361 292.762 119.082C292.67 138.886 295.8 153.018 301.004 162.146ZM418.18 185.238V143.432L494.975 22.5886H562.269V142.406H584.077V185.238H562.269V214.823H510.217V185.238H418.18ZM495.769 24.035H560.823V143.852H582.631V183.792H560.823V213.376H511.663V183.792H419.625V143.852L495.769 24.035ZM471.953 142.406H511.326V79.9464L471.953 142.406ZM470.264 142.373L511.293 77.2872H512.772V143.852H470.264V142.373ZM405.162 119.075C405.069 181.758 373.097 218.646 321.626 218.553C270.063 218.461 237.905 181.48 238.09 119.075C238.275 56.578 270.063 21.4464 321.626 21.4464C373.097 21.4464 405.254 56.7629 405.162 119.075ZM291.316 119.075C291.132 158.922 303.884 176.765 321.626 176.765C339.368 176.765 352.028 158.922 351.935 119.075C351.843 80.1532 339.368 62.8647 321.626 62.8647C303.884 62.8647 291.501 80.1532 291.316 119.075Z" fill="#A6ACB6"/>
<circle cx="41.5" cy="2.5" r="2.5" fill="#F2F2F2"/>
<circle cx="424" cy="19" r="4" fill="#F2F2F2"/>
<circle cx="201.5" cy="79.5" r="3.5" fill="#F2F2F2"/>
<circle cx="260.5" cy="267.5" r="2.5" fill="#F2F2F2"/>
<circle cx="663.5" cy="121.5" r="2.5" fill="#F2F2F2"/>
<circle cx="2.5" cy="283.5" r="2.5" fill="#F2F2F2"/>
<circle cx="436" cy="236" r="5" fill="#F2F2F2"/>
<circle cx="323.5" cy="176.5" r="55.5" fill="white"/>
<path d="M351.856 206.844C338.077 220.323 318.031 222.235 302.576 213.096C279.859 199.67 275.802 168.377 294.418 149.623C311.53 132.892 336.772 134.438 351.853 149.515C367.685 165.345 367.685 191.012 351.856 206.844Z" fill="white"/>
<path d="M351.856 206.844C343.646 214.871 333.719 218.614 323.605 218.715V137.645C333.84 137.749 344.041 141.706 351.853 149.516C367.685 165.345 367.685 191.012 351.856 206.844Z" fill="#E6E7EA"/>
<path d="M354.436 146.932C337.218 129.718 309.189 129.687 291.944 146.932C283.603 155.268 279 166.365 279 178.179C279 202.599 298.765 222.366 323.189 222.366C334.759 222.366 345.861 217.946 354.329 209.533C372.414 191.047 370.963 163.459 354.436 146.932ZM349.273 204.26C342.936 210.738 333.633 214.935 323.605 215.045C303.13 215.269 286.309 198.817 286.304 178.179C286.309 157.216 303.616 140.953 323.605 141.296C333.305 141.403 342.402 145.228 349.273 152.095C363.653 166.479 363.653 189.879 349.273 204.26Z" fill="#E6E7EA"/>
<path d="M354.438 204.261L368.414 218.238C365.187 221.47 366.366 220.29 363.252 223.404L349.273 209.425L354.438 204.261Z" fill="#F3F4F8"/>
<path d="M354.437 204.261L368.413 218.238L365.724 220.93L351.746 206.952L354.437 204.261Z" fill="#E6E7EA"/>
<path d="M354.436 209.424C346.793 217.237 335.691 222.257 323.605 222.364V215.046C356.041 214.688 372.382 175.209 349.273 152.096C342.402 145.228 333.305 141.404 323.605 141.297V134.012C334.782 134.117 345.925 138.424 354.436 146.932C371.666 164.161 371.666 192.197 354.436 209.424Z" fill="#88909E"/>
<path d="M358 223.657L363.657 218L393.967 248.311L388.311 253.967L358 223.657Z" fill="#F6CC28"/>
<path d="M363.082 218.455L368.739 212.798L399.049 243.108L393.393 248.765L363.082 218.455Z" fill="#F1BF13"/>
<path d="M336.5 168.5L311.5 193.5" stroke="#8C97A2" stroke-width="3" stroke-linecap="round" stroke-linejoin="round"/>
<path d="M311.5 168.5L336.5 193.5" stroke="#8C97A2" stroke-width="3" stroke-linecap="round" stroke-linejoin="round"/>
</svg>
