<svg width="32" height="32" viewBox="0 0 32 32" fill="none" xmlns="http://www.w3.org/2000/svg">
<path d="M10.8014 13.6494L8.91406 16.9387H10.793L10.8014 13.6494Z" fill="black"/>
<path d="M27.9569 5.36894L23.5483 9.7775L22.2225 8.45169L26.631 4.04313C23.6992 1.42963 19.9597 0 16 0C11.7262 0 7.70831 1.66431 4.68625 4.68625C1.66431 7.70825 0 11.7262 0 16C0 19.9597 1.42963 23.6992 4.04313 26.6311L8.45169 22.2225L9.7775 23.5483L5.36894 27.9569C8.30081 30.5704 12.0403 32 16 32C20.2738 32 24.2917 30.3357 27.3137 27.3137C30.3357 24.2917 32 20.2738 32 16C32 12.0403 30.5704 8.30081 27.9569 5.36894ZM23.4616 11.8347L22.4119 13.3883C21.8542 13.0116 21.202 12.8125 20.5256 12.8125C18.6646 12.8125 17.1506 14.3265 17.1506 16.1875C17.1506 18.0485 18.6646 19.5625 20.5256 19.5625C22.1751 19.5625 22.9707 18.3919 23.2208 17.125H20.3086V15.25H25.1857V16.1875C25.1857 19.2786 23.2694 21.4375 20.5256 21.4375C17.6307 21.4375 15.2756 19.0824 15.2756 16.1875C15.2756 13.2926 17.6307 10.9375 20.5256 10.9375C21.5775 10.9375 22.5927 11.2477 23.4616 11.8347ZM6.43919 18.8137V17.4845L10.1959 10.9375H12.6835L12.668 16.9387H13.8154V18.8137H12.6631L12.6564 21.4399L10.7814 21.4375L10.7881 18.8137H6.43919Z" fill="black"/>
</svg>
