<svg width="28" height="20" viewBox="0 0 28 20" fill="none" xmlns="http://www.w3.org/2000/svg">
<path d="M23.7499 5H19.9999V0H2.49994C1.12494 0 -6.10352e-05 1.125 -6.10352e-05 2.5V16.25H2.49994C2.49994 18.325 4.17494 20 6.24994 20C8.32494 20 9.99994 18.325 9.99994 16.25H17.4999C17.4999 18.325 19.1749 20 21.2499 20C23.3249 20 24.9999 18.325 24.9999 16.25H27.4999V10L23.7499 5ZM6.24994 18.125C5.21244 18.125 4.37494 17.2875 4.37494 16.25C4.37494 15.2125 5.21244 14.375 6.24994 14.375C7.28744 14.375 8.12494 15.2125 8.12494 16.25C8.12494 17.2875 7.28744 18.125 6.24994 18.125ZM23.1249 6.875L25.5749 10H19.9999V6.875H23.1249ZM21.2499 18.125C20.2124 18.125 19.3749 17.2875 19.3749 16.25C19.3749 15.2125 20.2124 14.375 21.2499 14.375C22.2874 14.375 23.1249 15.2125 23.1249 16.25C23.1249 17.2875 22.2874 18.125 21.2499 18.125Z" fill="#0F0F17"/>
</svg>
