<svg width="59" height="59" viewBox="0 0 59 59" fill="none" xmlns="http://www.w3.org/2000/svg">
<path d="M53.8145 3.45703H25.9277C23.0581 3.45703 20.7422 5.77297 20.7422 8.64258C20.7422 11.5117 23.0581 13.8281 25.9277 13.8281H53.8145C56.6841 13.8281 59 11.5117 59 8.64258C59 5.77297 56.6841 3.45703 53.8145 3.45703Z" fill="#F6CC28"/>
<path d="M53.8145 24.3145H25.9277C23.0581 24.3145 20.7422 26.6304 20.7422 29.5C20.7422 32.3692 23.0581 34.6855 25.9277 34.6855H53.8145C56.6841 34.6855 59 32.3692 59 29.5C59 26.6304 56.6841 24.3145 53.8145 24.3145Z" fill="#F6CC28"/>
<path d="M53.8145 45.1719H25.9277C23.0581 45.1719 20.7422 47.4878 20.7422 50.3574C20.7422 53.2266 23.0581 55.543 25.9277 55.543H53.8145C56.6841 55.543 59 53.2266 59 50.3574C59 47.4878 56.6841 45.1719 53.8145 45.1719Z" fill="#F6CC28"/>
<path d="M15.5566 41.7148H1.72852C0.760277 41.7148 0 42.4751 0 43.4434V57.2715C0 58.2393 0.760277 59 1.72852 59H15.5566C16.5249 59 17.2852 58.2393 17.2852 57.2715V43.4434C17.2852 42.4751 16.5249 41.7148 15.5566 41.7148Z" fill="#C3CBD9"/>
<path d="M15.5566 20.7422H1.72852C0.760277 20.7422 0 21.5025 0 22.4707V36.5293C0 37.4971 0.760277 38.2578 1.72852 38.2578H15.5566C16.5249 38.2578 17.2852 37.4971 17.2852 36.5293V22.4707C17.2852 21.5025 16.5249 20.7422 15.5566 20.7422Z" fill="#C3CBD9"/>
<path d="M15.5566 0H1.72852C0.760277 0 0 0.760277 0 1.72852V15.5566C0 16.5244 0.760277 17.2852 1.72852 17.2852H15.5566C16.5249 17.2852 17.2852 16.5244 17.2852 15.5566V1.72852C17.2852 0.760277 16.5249 0 15.5566 0Z" fill="#C3CBD9"/>
</svg>
