<svg width="64" height="64" viewBox="0 0 64 64" fill="none" xmlns="http://www.w3.org/2000/svg">
<g clip-path="url(#clip0)">
<path d="M62.9024 27.0315L30.2717 59.6621C28.8073 61.1265 26.433 61.1265 24.9687 59.6621L4.33856 39.032C2.87412 37.5676 2.87412 35.1933 4.33856 33.729L36.9691 1.09833C38.4335 -0.36611 40.8078 -0.36611 42.2721 1.09833L54.3036 13.1298L56.1808 17.5069L59.9288 18.755L62.9023 21.7285C64.3667 23.1928 64.3667 25.5671 62.9024 27.0315Z" fill="#C3CBD9"/>
<path d="M16.3652 51.0615L54.2932 13.1335L59.9174 18.7577L21.9895 56.6857L16.3652 51.0615Z" fill="#88909E"/>
<path d="M3.74985 27.3251C1.67881 27.3251 0 29.0039 0 31.0749V60.2504C0 62.3214 1.67881 64.0002 3.74985 64.0002H26.8231L30.573 45.6627L26.8231 27.3252H3.74985V27.3251Z" fill="#F6CC28"/>
<path d="M49.8956 27.3251H26.8223V64.0002H49.8956C51.9666 64.0002 53.6454 62.3214 53.6454 60.2504V31.0749C53.6454 29.0039 51.9666 27.3251 49.8956 27.3251Z" fill="#F1BF13"/>
<path d="M5.96484 52.1278H13.3657V55.8776H5.96484V52.1278Z" fill="white"/>
<path d="M17.4023 52.1278H24.8032V55.8776H17.4023V52.1278Z" fill="white"/>
<path d="M28.8398 52.1278H36.2405V55.8776H28.8398V52.1278Z" fill="#FAF1B4"/>
<path d="M40.2773 52.1278H47.6782V55.8776H40.2773V52.1278Z" fill="#FAF1B4"/>
<path d="M6.08008 37.3224H17.4039V45.2775H6.08008V37.3224Z" fill="white"/>
</g>
<defs>
<clipPath id="clip0">
<rect width="64" height="64" fill="white"/>
</clipPath>
</defs>
</svg>
