<svg width="82" height="82" viewBox="0 0 82 82" fill="none" xmlns="http://www.w3.org/2000/svg">
<path d="M62.7812 31.3906C68.0884 31.3906 72.3906 27.0884 72.3906 21.7812C72.3906 16.4741 68.0884 12.1719 62.7812 12.1719C57.4741 12.1719 53.1719 16.4741 53.1719 21.7812C53.1719 27.0884 57.4741 31.3906 62.7812 31.3906Z" fill="#FFD9B3"/>
<path d="M72.3906 21.7812C72.3906 16.4815 68.081 12.1719 62.7812 12.1719V31.3906C68.081 31.3906 72.3906 27.081 72.3906 21.7812Z" fill="#FFCC99"/>
<path d="M78.3496 41.7039C77.5097 35.8247 72.3977 31.3906 66.4599 31.3906H65.1836C64.361 31.3906 63.5578 31.4753 62.7812 31.6337C57.3053 32.7499 53.1719 37.6021 53.1719 43.4023C53.1719 47.3765 49.939 50.6094 45.9648 50.6094H41L36.0352 55.7144L41 60.2188H45.9648C50.4079 60.2188 54.5378 58.8658 57.9766 56.5587V69.8281H62.7812H82L78.3496 41.7039Z" fill="#F6CC28"/>
<path d="M78.3496 41.7039C77.5097 35.8247 72.3977 31.3906 66.4599 31.3906H65.1836C64.361 31.3906 63.5578 31.4753 62.7812 31.6337V69.8281H82L78.3496 41.7039Z" fill="#F1BF13"/>
<path d="M19.2188 31.3906C24.5259 31.3906 28.8281 27.0884 28.8281 21.7812C28.8281 16.4741 24.5259 12.1719 19.2188 12.1719C13.9116 12.1719 9.60938 16.4741 9.60938 21.7812C9.60938 27.0884 13.9116 31.3906 19.2188 31.3906Z" fill="#FFD9B3"/>
<path d="M28.8281 21.7812C28.8281 16.4815 24.5185 12.1719 19.2188 12.1719V31.3906C24.5185 31.3906 28.8281 27.081 28.8281 21.7812Z" fill="#FFCC99"/>
<path d="M36.0352 50.6094C32.061 50.6094 28.8281 47.3765 28.8281 43.4023C28.8281 37.6021 24.6947 32.7499 19.2188 31.6337C18.4422 31.4753 17.639 31.3906 16.8164 31.3906H15.5401C9.60233 31.3906 4.4903 35.8247 3.65044 41.7039L0 69.8281H19.2188H24.0234V56.5587C27.4622 58.8658 31.5921 60.2188 36.0352 60.2188H41V50.6094H36.0352Z" fill="#C3CBD9"/>
<path d="M24.0234 56.5587C27.4622 58.8657 31.5921 60.2187 36.0352 60.2187H41V50.6094H36.0352C32.061 50.6094 28.8281 47.3764 28.8281 43.4023C28.8281 37.6021 24.6947 32.7499 19.2188 31.6337V69.8281H24.0234V56.5587Z" fill="#88909E"/>
</svg>
