<svg width="80" height="70" viewBox="0 0 80 70" fill="none" xmlns="http://www.w3.org/2000/svg">
<g clip-path="url(#clip0)">
<path d="M67.5295 57.2705H16.8887C15.7732 57.2705 14.8691 56.3663 14.8691 55.251V11.5901C14.8691 10.4747 15.7734 9.57062 16.8887 9.57062H67.5295C68.645 9.57062 69.5491 10.4748 69.5491 11.5901V55.2508C69.5491 56.3663 68.6448 57.2705 67.5295 57.2705Z" fill="#F6CC28"/>
<path d="M67.5296 9.57062H60.5645V57.2705H67.5296C68.6451 57.2705 69.5491 56.3663 69.5491 55.251V11.5901C69.5491 10.4747 68.6449 9.57062 67.5296 9.57062Z" fill="#F1BF13"/>
<path d="M46.5672 25.0403H37.8516C36.8247 25.0403 35.9922 24.2078 35.9922 23.1809V9.57062H48.4266V23.1811C48.4266 24.2078 47.5941 25.0403 46.5672 25.0403Z" fill="white"/>
<path d="M74.0386 44.1898L57.8499 55.6201L53.0252 55.3344L52.8363 53.331C52.5552 50.3487 50.3787 47.9552 47.5659 47.5354L34.639 45.9652C31.657 45.5201 28.7859 44.4659 26.1864 42.8615C22.6373 40.6712 18.5997 39.5167 14.4878 39.5167H5.16797V61.9608C5.16797 61.9608 30.7345 70.3927 31.2104 70.4288C31.6948 70.4657 57.4805 68.2286 57.4805 68.2286C59.391 67.9068 61.1869 67.0579 62.6861 65.7679L78.7141 50.5596C80.1525 49.2121 80.4192 46.9474 79.3371 45.2695C78.1528 43.4337 75.7857 42.9512 74.0386 44.1898Z" fill="#FFD9B3"/>
<path d="M79.3371 45.2696C79.2125 45.0765 79.0741 44.8991 78.9253 44.7363L62.6861 56.7832C61.1869 58.0732 59.391 58.9221 57.4805 59.244C57.4805 59.244 31.695 61.481 31.2104 61.4441C30.7345 61.408 5.16797 52.9762 5.16797 52.9762V61.961C5.16797 61.961 30.7345 70.3928 31.2104 70.4289C31.6948 70.4657 57.4805 68.2288 57.4805 68.2288C59.391 67.9069 61.1869 67.058 62.6861 65.768L78.7141 50.5598C80.1527 49.2121 80.4192 46.9474 79.3371 45.2696Z" fill="#F4C892"/>
<path d="M7.11311 69.5845H3.22265C1.44281 69.5845 0 68.1417 0 66.3619V37.5718C0 35.7919 1.44281 34.3491 3.22265 34.3491H7.11311C8.89295 34.3491 10.3358 35.7919 10.3358 37.5718V66.3617C10.3358 68.1417 8.89295 69.5845 7.11311 69.5845Z" fill="#88909E"/>
<path d="M26.2349 51.7552C25.5739 51.6968 24.9872 52.1863 24.9286 52.8491C24.8699 53.5119 25.3599 54.0968 26.0227 54.1554L53.025 55.3343L26.2349 51.7552Z" fill="#F4C892"/>
</g>
<defs>
<clipPath id="clip0">
<rect width="80" height="70" fill="white"/>
</clipPath>
</defs>
</svg>
