<svg width="65" height="65" viewBox="0 0 65 65" fill="none" xmlns="http://www.w3.org/2000/svg">
<path d="M52.8226 46.9143L45.5921 45.3484L42.667 42.8769L45.1645 40.1172L41.2108 35.7581L42.4623 29.9708L36.8535 28.1465L35.0292 22.5377L29.2419 23.7892L24.883 19.8357L22.1233 22.3332L19.6518 19.408L18.0859 12.1776L25.1229 9.88838L27.4122 2.85137L34.65 4.41911L40.1174 0L45.5847 4.41911L52.8226 2.85137L55.1118 9.88838L62.1488 12.1776L60.5811 19.4154L65.0002 24.8828L60.5811 30.3502L62.1488 37.588L55.1118 39.8772L52.8226 46.9143Z" fill="#F6CC28"/>
<path d="M42.4623 29.9708L41.2106 35.7581L45.1643 40.1172L42.6668 42.8769L45.5919 45.3484L52.8224 46.9143L55.1116 39.8772L62.1486 37.588L60.5809 30.3502L65 24.8828L60.5809 19.4154L62.1486 12.1776L55.1116 9.88838L52.8224 2.85137L45.5846 4.41911L40.1172 0V29.2081L42.4623 29.9708Z" fill="#F1BF13"/>
<path d="M24.8828 65L19.4154 60.5809L12.1776 62.1487L9.88838 55.1117L2.85137 52.8224L4.41911 45.5846L0 40.1172L4.41911 34.6499L2.85137 27.412L9.88838 25.1228L12.1776 18.0858L19.4116 19.6516L24.8828 14.6956L30.3502 19.6535L37.588 18.0858L39.8772 25.1228L46.9143 27.412L45.3465 34.6499L50.3044 40.1172L45.3484 45.5884L46.9143 52.8224L39.8772 55.1117L37.588 62.1487L30.3502 60.5809L24.8828 65Z" fill="#C3CBD9"/>
<path d="M30.3502 60.5809L37.588 62.1487L39.8772 55.1117L46.9143 52.8224L45.3484 45.5884L50.3044 40.1172L45.3465 34.6499L46.9143 27.412L39.8772 25.1228L37.588 18.0858L30.3502 19.6535L24.8828 14.6956V65L30.3502 60.5809Z" fill="#88909E"/>
<path d="M17.2656 40.1172C14.1154 40.1172 11.5527 37.5545 11.5527 34.4043C11.5527 31.2541 14.1154 28.6914 17.2656 28.6914C20.4158 28.6914 22.9785 31.2541 22.9785 34.4043C22.9785 37.5545 20.4158 40.1172 17.2656 40.1172Z" fill="#F6CC28"/>
<path d="M32.5 51.543C29.3498 51.543 26.7871 48.9803 26.7871 45.8301C26.7871 42.6799 29.3498 40.1172 32.5 40.1172C35.6502 40.1172 38.2129 42.6799 38.2129 45.8301C38.2129 48.9803 35.6502 51.543 32.5 51.543Z" fill="#F1BF13"/>
<path d="M14.5977 49.9498L32.2194 27.9297L35.1933 30.3096L17.5716 52.3297L14.5977 49.9498Z" fill="#F6CC28"/>
<path d="M24.8828 43.165L35.176 30.2981L32.2024 27.9197L24.8828 37.0694V43.165Z" fill="#F1BF13"/>
</svg>
