<svg width="96" height="77" viewBox="0 0 96 77" fill="none" xmlns="http://www.w3.org/2000/svg">
<g clip-path="url(#clip0)">
<path d="M25.6838 67.0296H1.55619C0.69666 67.0296 0 66.3329 0 65.4734V63.8415C0 57.5948 5.06404 52.5308 11.3107 52.5308H22.2969C26.0889 52.5308 29.3754 54.6944 30.9895 57.8544" fill="#C3CBD9"/>
<path d="M22.2977 52.5308H15.7637V67.0296H25.6847L30.9903 57.8544C29.3764 54.6944 26.0897 52.5308 22.2977 52.5308Z" fill="#88909E"/>
<path d="M64.957 57.8109C66.5841 54.6904 69.9418 52.384 73.7046 52.384H86.2469C91.6342 52.384 96.0014 56.7512 96.0014 62.1385V64.3286C96.0014 65.7393 94.8578 66.8828 93.4472 66.8828H70.3148" fill="#C3CBD9"/>
<path d="M47.9201 45.924C55.4591 45.924 61.5707 39.8124 61.5707 32.2734C61.5707 24.7344 55.4591 18.6229 47.9201 18.6229C40.3811 18.6229 34.2695 24.7344 34.2695 32.2734C34.2695 39.8124 40.3811 45.924 47.9201 45.924Z" fill="#FFD9B3"/>
<path d="M68.0078 77.3773H27.8296C26.4189 77.3773 25.2754 76.2336 25.2754 74.823V68.677C25.2754 60.8218 31.6433 54.4539 39.4985 54.4539H56.3387C64.1939 54.4539 70.5618 60.8218 70.5618 68.677V74.823C70.562 76.2336 69.4183 77.3773 68.0078 77.3773Z" fill="#F6CC28"/>
<path d="M79.9718 45.3227C85.3075 45.3227 89.633 40.9973 89.633 35.6615C89.633 30.3258 85.3075 26.0003 79.9718 26.0003C74.636 26.0003 70.3105 30.3258 70.3105 35.6615C70.3105 40.9973 74.636 45.3227 79.9718 45.3227Z" fill="#FFCC99"/>
<path d="M15.7608 45.3227C21.0966 45.3227 25.422 40.9973 25.422 35.6615C25.422 30.3258 21.0966 26.0003 15.7608 26.0003C10.4251 26.0003 6.09961 30.3258 6.09961 35.6615C6.09961 40.9973 10.4251 45.3227 15.7608 45.3227Z" fill="#FFCC99"/>
<path d="M48.0156 18.623V45.9191C55.5083 45.8651 61.5661 39.7766 61.5661 32.2712C61.5661 24.7657 55.5083 18.677 48.0156 18.623Z" fill="#FFCC99"/>
<path d="M56.3397 54.4537H48.0195V77.3771H68.0086C69.4194 77.3771 70.5629 76.2335 70.5629 74.8229V68.6769C70.5629 60.8217 64.1949 54.4537 56.3397 54.4537Z" fill="#F1BF13"/>
<path d="M79.9746 26.0005V45.3227C85.3102 45.3227 89.6358 40.9973 89.6358 35.6615C89.6358 30.3257 85.3104 26.0005 79.9746 26.0005Z" fill="#FFB366"/>
<path d="M86.2441 52.384H79.9219V66.8828H93.4444C94.8552 66.8828 95.9987 65.7391 95.9987 64.3286V62.1385C95.9987 56.7512 91.6315 52.384 86.2441 52.384Z" fill="#88909E"/>
<path d="M15.7619 26.0005C15.7449 26.0005 15.728 26.0016 15.7109 26.0018V45.3214C15.728 45.3214 15.7449 45.3227 15.7619 45.3227C21.0977 45.3227 25.4231 40.9973 25.4231 35.6615C25.4231 30.3259 21.0977 26.0005 15.7619 26.0005Z" fill="#FFB366"/>
</g>
<defs>
<clipPath id="clip0">
<rect width="96" height="77" fill="white"/>
</clipPath>
</defs>
</svg>
