<svg width="26" height="26" viewBox="0 0 26 26" fill="none" xmlns="http://www.w3.org/2000/svg">
<path d="M25.2407 13C25.2407 19.759 19.7619 25.2383 13.0024 25.2383H12.9999C6.24193 25.2368 0.76416 19.758 0.76416 13C0.76416 6.24203 6.24193 0.763242 12.9999 0.761719H13.0024C19.7619 0.761719 25.2407 6.24102 25.2407 13Z" fill="#DFCFC0"/>
<path d="M25.2408 13C25.2408 19.759 19.762 25.2383 13.0025 25.2383H13V0.761719H13.0025C19.762 0.761719 25.2408 6.24102 25.2408 13Z" fill="#D6C6B6"/>
<path d="M22.1924 3.80758C19.7371 1.3523 16.4724 0 13 0C9.52758 0 6.26285 1.3523 3.80758 3.80758C1.3523 6.26285 0 9.52758 0 13C0 16.4724 1.3523 19.7371 3.80758 22.1924C6.26285 24.6477 9.52758 26 13 26C16.4724 26 19.7371 24.6477 22.1924 22.1924C24.6477 19.7371 26 16.4724 26 13C26 9.52758 24.6477 6.26285 22.1924 3.80758ZM21.1154 21.1154C18.9475 23.2827 16.0657 24.4766 13 24.4766C9.93434 24.4766 7.0525 23.2827 4.88465 21.1154C2.7173 18.9475 1.52344 16.0657 1.52344 13C1.52344 9.93434 2.7173 7.0525 4.88465 4.88465C7.0525 2.7173 9.93434 1.52344 13 1.52344C16.0657 1.52344 18.9475 2.7173 21.1154 4.88465C23.2827 7.0525 24.4766 9.93434 24.4766 13C24.4766 16.0657 23.2827 18.9475 21.1154 21.1154Z" fill="#CEBDAD"/>
<path d="M26 13C26 16.4724 24.6477 19.7371 22.1924 22.1924C19.7371 24.6477 16.4724 26 13 26V24.4766C16.0657 24.4766 18.9475 23.2827 21.1154 21.1154C23.2827 18.9475 24.4766 16.0657 24.4766 13C24.4766 9.93434 23.2827 7.0525 21.1154 4.88465C18.9475 2.7173 16.0657 1.52344 13 1.52344V0C16.4724 0 19.7371 1.3523 22.1924 3.80758C24.6477 6.26285 26 9.52758 26 13Z" fill="#E5D6C7"/>
</svg>
