<svg width="79" height="58" viewBox="0 0 79 58" fill="none" xmlns="http://www.w3.org/2000/svg">
<path fill-rule="evenodd" clip-rule="evenodd" d="M59.2677 6.01745C53.891 0.640781 45.0856 0.640129 39.7008 6.0179L26.5019 19.2168C21.125 24.5937 21.125 33.4063 26.5019 38.7832L39.7013 51.9826C45.0782 57.3595 53.8908 57.3595 59.2677 51.9826L72.467 38.7832C77.844 33.4063 77.844 24.5937 72.467 19.2168L59.2677 6.01745ZM38.2983 4.61356C44.4574 -1.5376 54.5189 -1.53825 60.6711 4.61401L73.8705 17.8134C80.0225 23.9654 80.0225 34.0346 73.8705 40.1866L60.6711 53.386C54.5191 59.538 44.4499 59.538 38.2979 53.386L25.0985 40.1866C18.9465 34.0346 18.9465 23.9654 25.0985 17.8134L38.2983 4.61356ZM52.1609 11.7894C50.6916 10.3201 48.2848 10.3201 46.8155 11.7894L32.2739 26.331C30.8046 27.8003 30.8046 30.2071 32.2739 31.6764L46.8155 46.2181C48.2848 47.6874 50.6916 47.6874 52.1609 46.2181L66.7026 31.6764C68.1719 30.2071 68.1719 27.8003 66.7026 26.331L52.1609 11.7894ZM45.4121 10.3859C47.6565 8.14153 51.3199 8.14153 53.5644 10.3859L68.106 24.9276C70.3504 27.172 70.3504 30.8355 68.106 33.0799L53.5644 47.6215C51.3199 49.8659 47.6565 49.8659 45.4121 47.6215L30.8704 33.0799C28.626 30.8355 28.626 27.172 30.8704 24.9276L45.4121 10.3859Z" fill="#0F0F17"/>
<path fill-rule="evenodd" clip-rule="evenodd" d="M38.4925 5.31575L38.7461 5.5693L32.303 12.0124L31.3783 11.0877C29.5214 9.23081 26.4863 9.23081 24.6295 11.0877L10.0878 25.6293C8.23096 27.4862 8.23096 30.5213 10.0878 32.3782L24.6295 46.9198C26.4863 48.7767 29.5214 48.7767 31.3783 46.9198L45.92 32.3782C47.7768 30.5213 47.7768 27.4862 45.92 25.6293L38.7461 18.4554L45.1892 12.0124L51.6919 18.5151C57.4564 24.2796 57.4564 33.7205 51.6919 39.4849L38.4925 52.6843C32.7281 58.4488 23.2872 58.4488 17.5227 52.6843L4.32335 39.4849C-1.44112 33.7205 -1.44112 24.2796 4.32335 18.5151L17.5227 5.31575C23.2946 -0.448715 32.7281 -0.448715 38.4925 5.31575Z" fill="#0F0F17"/>
</svg>
