<svg width="16" height="16" viewBox="0 0 16 16" fill="none" xmlns="http://www.w3.org/2000/svg">
<path fill-rule="evenodd" clip-rule="evenodd" d="M1.33325 8.00001C1.33325 7.63182 1.63173 7.33334 1.99992 7.33334H13.9999C14.3681 7.33334 14.6666 7.63182 14.6666 8.00001C14.6666 8.3682 14.3681 8.66668 13.9999 8.66668H1.99992C1.63173 8.66668 1.33325 8.3682 1.33325 8.00001Z" fill="#8C97A2"/>
<path fill-rule="evenodd" clip-rule="evenodd" d="M1.33325 4.00001C1.33325 3.63182 1.63173 3.33334 1.99992 3.33334H13.9999C14.3681 3.33334 14.6666 3.63182 14.6666 4.00001C14.6666 4.3682 14.3681 4.66668 13.9999 4.66668H1.99992C1.63173 4.66668 1.33325 4.3682 1.33325 4.00001Z" fill="#8C97A2"/>
<path fill-rule="evenodd" clip-rule="evenodd" d="M1.33325 12C1.33325 11.6318 1.63173 11.3333 1.99992 11.3333H13.9999C14.3681 11.3333 14.6666 11.6318 14.6666 12C14.6666 12.3682 14.3681 12.6667 13.9999 12.6667H1.99992C1.63173 12.6667 1.33325 12.3682 1.33325 12Z" fill="#8C97A2"/>
</svg>
