<svg width="16" height="16" viewBox="0 0 16 16" fill="none" xmlns="http://www.w3.org/2000/svg">
<path d="M5 12.5C4.175 12.5 3.5075 13.175 3.5075 14C3.5075 14.825 4.175 15.5 5 15.5C5.825 15.5 6.5 14.825 6.5 14C6.5 13.175 5.825 12.5 5 12.5ZM0.5 0.5V2H2L4.7 7.6925L3.6875 9.53C3.5675 9.74 3.5 9.9875 3.5 10.25C3.5 11.075 4.175 11.75 5 11.75H14V10.25H5.315C5.21 10.25 5.1275 10.1675 5.1275 10.0625L5.15 9.9725L5.825 8.75H11.4125C11.975 8.75 12.47 8.4425 12.725 7.9775L15.41 3.11C15.47 3.005 15.5 2.8775 15.5 2.75C15.5 2.3375 15.1625 2 14.75 2H3.6575L2.9525 0.5H0.5ZM12.5 12.5C11.675 12.5 11.0075 13.175 11.0075 14C11.0075 14.825 11.675 15.5 12.5 15.5C13.325 15.5 14 14.825 14 14C14 13.175 13.325 12.5 12.5 12.5Z" fill="#0F0F17"/>
</svg>
