<svg width="64" height="61" viewBox="0 0 64 61" fill="none" xmlns="http://www.w3.org/2000/svg">
<path d="M24.3789 60.1338C21.2764 60.1338 18.7529 57.6099 18.7529 54.5078C18.7529 51.4053 21.2764 48.8818 24.3789 48.8818C27.481 48.8818 30.0044 51.4053 30.0044 54.5078C30.0044 57.6099 27.481 60.1338 24.3789 60.1338Z" fill="#88909E"/>
<path d="M24.3794 56.3828C23.3447 56.3828 22.5039 55.5425 22.5039 54.5078C22.5039 53.4731 23.3447 52.6323 24.3794 52.6323C25.4141 52.6323 26.2544 53.4731 26.2544 54.5078C26.2544 55.5425 25.4141 56.3828 24.3794 56.3828Z" fill="#C3CBD9"/>
<path d="M50.8828 60.1338C47.7808 60.1338 45.2568 57.6099 45.2568 54.5078C45.2568 51.4053 47.7808 48.8818 50.8828 48.8818C53.9849 48.8818 56.5088 51.4053 56.5088 54.5078C56.5088 57.6099 53.9849 60.1338 50.8828 60.1338Z" fill="#88909E"/>
<path d="M50.8833 56.3828C49.8486 56.3828 49.0078 55.5425 49.0078 54.5078C49.0078 53.4731 49.8486 52.6323 50.8833 52.6323C51.918 52.6323 52.7583 53.4731 52.7583 54.5078C52.7583 55.5425 51.918 56.3828 50.8833 56.3828Z" fill="#C3CBD9"/>
<path d="M56.8091 47.0064C56.8091 48.0567 55.9839 48.8819 54.9341 48.8819H19.0537C15.9404 48.8819 13.4277 46.3687 13.4277 43.2559C13.4277 40.4058 15.5278 38.0425 18.3032 37.7051C18.5283 37.6299 18.791 37.6299 19.0537 37.6299C19.5034 37.6299 19.9536 37.8179 20.2539 38.1177L19.1284 41.3809C19.0913 41.3809 19.0913 41.3809 19.0537 41.3809C18.0034 41.3809 17.1782 42.2056 17.1782 43.2559C17.1782 44.3062 18.0034 45.1314 19.0537 45.1314H54.9341C55.9839 45.1314 56.8091 45.9561 56.8091 47.0064Z" fill="#C3CBD9"/>
<path d="M12.4453 11.3804C12.5645 11.5303 14.584 12.4424 16.6172 13.3355C16.6245 13.1738 16.645 13.0137 16.6084 12.8486L14.9585 5.34717C14.7695 4.48633 14.0078 3.875 13.127 3.875H1.87549C0.838868 3.875 0 4.71387 0 5.75049C0 6.78662 0.838868 7.62549 1.87549 7.62549H11.6196L12.4453 11.3804Z" fill="#C3CBD9"/>
<path d="M56.8086 47.0064C56.8086 48.0567 55.9834 48.8819 54.9336 48.8819H37.293V45.1313H54.9336C55.9834 45.1313 56.8086 45.9561 56.8086 47.0064Z" fill="#88909E"/>
<path d="M63.6343 12.1264C63.2593 11.6386 62.7339 11.3759 62.1338 11.3759H12.4512L18.3023 37.705L19.1274 41.3808H54.6328C55.458 41.3808 56.208 40.8178 56.4331 40.0302L63.9341 13.7763C64.0845 13.2138 63.9717 12.5761 63.6343 12.1264Z" fill="#F6CC28"/>
<path d="M63.9346 13.7763L56.4336 40.0302C56.2085 40.8178 55.4585 41.3808 54.6333 41.3808H37.293V11.3759H62.1343C62.7344 11.3759 63.2598 11.6386 63.6348 12.1264C63.9722 12.5761 64.085 13.2138 63.9346 13.7763Z" fill="#F1BF13"/>
</svg>
