<svg width="42" height="41" viewBox="0 0 42 41" fill="none" xmlns="http://www.w3.org/2000/svg">
<g clip-path="url(#clip0)">
<path d="M41.4898 20.5958C41.4898 31.8167 32.3936 40.913 21.1727 40.913C15.2575 40.913 9.93269 38.3854 6.22004 34.351C5.24481 33.292 4.38154 32.1285 3.6468 30.8805C1.87299 27.8636 0.855469 24.3483 0.855469 20.5958C0.855469 9.37492 9.95177 0.278625 21.1727 0.278625C24.9259 0.278625 28.4412 1.29614 31.4573 3.07079C32.7054 3.80469 33.868 4.66797 34.927 5.64402C38.9614 9.35502 41.4898 14.6806 41.4898 20.5958Z" fill="#F0CD00"/>
<path d="M41.4909 20.5958C41.4909 31.5637 32.801 40.5016 21.93 40.8988C11.0591 40.5016 2.36914 31.5637 2.36914 20.5958C2.36914 9.62779 11.0591 0.689885 21.93 0.292664C32.801 0.689885 41.4909 9.62779 41.4909 20.5958Z" fill="#FFDE50"/>
<path d="M34.9267 5.64404L6.21972 34.351C5.24449 33.292 4.38122 32.1285 3.64648 30.8805L31.457 3.0708C32.705 3.80471 33.8677 4.66798 34.9267 5.64404Z" fill="#FFEA94"/>
<path d="M40.0879 13.1681L13.7436 39.5124C11.8786 38.7793 10.1479 37.7784 8.59961 36.5569L37.1332 8.02325C38.3548 9.57151 39.3557 11.3022 40.0879 13.1681Z" fill="#FFEA94"/>
<path d="M36.9602 20.5958C36.9602 29.3148 29.8914 36.3835 21.1725 36.3835C18.1357 36.3835 15.2996 35.526 12.8922 34.04C11.8431 33.3932 10.8762 32.6261 10.0088 31.7587C9.37108 31.1218 8.78727 30.4293 8.26566 29.6904C7.54751 28.6729 6.94629 27.5667 6.48272 26.3916C5.79609 24.6543 5.40964 22.7652 5.38642 20.7899C5.38477 20.7252 5.38477 20.6605 5.38477 20.5958C5.38477 11.8768 12.4527 4.80811 21.1725 4.80811C21.2372 4.80811 21.3027 4.80811 21.3673 4.80976C23.3427 4.83298 25.2309 5.22025 26.9683 5.90606C28.1433 6.37046 29.2496 6.97085 30.2671 7.689C31.006 8.21144 31.6976 8.79442 32.3353 9.43213C33.2027 10.2987 33.9698 11.2665 34.6166 12.3155C36.1027 14.7229 36.9602 17.559 36.9602 20.5958Z" fill="#FAA300"/>
<path d="M32.3353 9.43213L10.0088 31.7586C9.37108 31.1218 8.78727 30.4293 8.26566 29.6904C7.54751 28.6729 6.94629 27.5667 6.48272 26.3916C5.79609 24.6543 5.40964 22.7652 5.38642 20.7899C5.38477 20.7252 5.38477 20.6605 5.38477 20.5958C5.38477 11.8768 12.4527 4.80811 21.1725 4.80811C21.2372 4.80811 21.3027 4.80811 21.3673 4.80976C23.3427 4.83298 25.2309 5.22025 26.9683 5.90606C28.1433 6.37046 29.2496 6.97085 30.2671 7.689C31.006 8.21144 31.6976 8.79442 32.3353 9.43213Z" fill="#FFBD00"/>
<path d="M36.9604 20.5958C36.9604 29.3148 29.8917 36.3835 21.1727 36.3835C20.8734 36.3835 20.5765 36.3752 20.2812 36.3586C28.5856 35.8967 35.1766 29.0154 35.1766 20.5958C35.1766 12.1762 28.5856 5.29489 20.2812 4.83298C20.5765 4.8164 20.8734 4.80811 21.1727 4.80811C29.8917 4.80811 36.9604 11.8768 36.9604 20.5958Z" fill="#F68E00"/>
<path d="M27.7709 24.4989C26.9728 24.0491 25.9614 24.3315 25.5117 25.1295C24.279 27.3168 22.2528 28.6226 20.0917 28.6226C17.9617 28.6226 16.0653 27.3796 14.8628 25.457H19.4308C20.3468 25.457 21.0894 24.7145 21.0894 23.7985C21.0894 22.8825 20.3468 22.1399 19.4308 22.1399H13.6386C13.5585 21.64 13.516 21.124 13.516 20.5959C13.516 20.0678 13.5585 19.5518 13.6386 19.0519H19.4308C20.3468 19.0519 21.0894 18.3094 21.0894 17.3933C21.0894 16.4773 20.3468 15.7348 19.4308 15.7348H14.8628C16.0653 13.8122 17.9617 12.5692 20.0917 12.5692C22.2528 12.5692 24.279 13.8751 25.5117 16.0624C25.9614 16.8603 26.973 17.1427 27.7709 16.6929C28.5689 16.2432 28.8512 15.2318 28.4015 14.4337C26.5729 11.1892 23.4664 9.2522 20.0917 9.2522C17.3978 9.2522 14.8813 10.4671 13.0058 12.673C12.2329 13.5821 11.6089 14.6164 11.1468 15.7349H9.03745C8.12144 15.7349 7.37891 16.4774 7.37891 17.3934C7.37891 18.3094 8.12144 19.052 9.03745 19.052H10.2899C10.23 19.5598 10.1989 20.0752 10.1989 20.596C10.1989 21.1168 10.23 21.6323 10.2899 22.14H9.03745C8.12144 22.14 7.37891 22.8825 7.37891 23.7986C7.37891 24.7146 8.12144 25.4571 9.03745 25.4571H11.1467C11.6088 26.5756 12.2328 27.6098 13.0057 28.5189C14.8812 30.7249 17.3977 31.9398 20.0916 31.9398C23.4663 31.9398 26.5728 30.0028 28.4014 26.7582C28.8512 25.9601 28.5689 24.9486 27.7709 24.4989Z" fill="#F68E00"/>
<path d="M29.845 24.4989C29.0469 24.0491 28.0356 24.3315 27.5858 25.1295C26.3531 27.3168 24.327 28.6226 22.1658 28.6226C20.0358 28.6226 18.1394 27.3796 16.937 25.457H21.5049C22.421 25.457 23.1635 24.7145 23.1635 23.7985C23.1635 22.8825 22.421 22.1399 21.5049 22.1399H15.7127C15.6326 21.64 15.5902 21.124 15.5902 20.5959C15.5902 20.0678 15.6326 19.5518 15.7127 19.0519H21.5049C22.421 19.0519 23.1635 18.3094 23.1635 17.3933C23.1635 16.4773 22.421 15.7348 21.5049 15.7348H16.937C18.1394 13.8122 20.0358 12.5692 22.1658 12.5692C24.327 12.5692 26.3531 13.8751 27.5858 16.0624C28.0356 16.8603 29.0471 17.1427 29.845 16.6929C30.643 16.2432 30.9253 15.2318 30.4756 14.4337C28.6471 11.1892 25.5405 9.2522 22.1658 9.2522C19.4719 9.2522 16.9554 10.4671 15.0799 12.673C14.307 13.5821 13.683 14.6164 13.2209 15.7349H11.1117C10.1957 15.7349 9.45312 16.4774 9.45312 17.3934C9.45312 18.3094 10.1957 19.052 11.1117 19.052H12.3641C12.3042 19.5598 12.2732 20.0752 12.2732 20.596C12.2732 21.1168 12.3042 21.6323 12.3641 22.14H11.1117C10.1957 22.14 9.45312 22.8825 9.45312 23.7986C9.45312 24.7146 10.1957 25.4571 11.1117 25.4571H13.2209C13.683 26.5756 14.307 27.6098 15.0799 28.5189C16.9554 30.7249 19.4719 31.9398 22.1658 31.9398C25.5405 31.9398 28.6471 30.0028 30.4756 26.7582C30.9253 25.9601 30.643 24.9486 29.845 24.4989Z" fill="#FFEA94"/>
</g>
<defs>
<clipPath id="clip0">
<rect width="40.6344" height="40.6344" fill="white" transform="translate(0.855469 0.278625)"/>
</clipPath>
</defs>
</svg>
