<svg width="34" height="34" viewBox="0 0 34 34" fill="none" xmlns="http://www.w3.org/2000/svg">
<g clip-path="url(#clip0)">
<path d="M33.8064 16.9979C33.8064 26.1149 26.4157 33.5056 17.2987 33.5056C12.4926 33.5056 8.16626 31.4519 5.14973 28.174C4.35736 27.3135 3.65595 26.3682 3.05897 25.3542C1.61775 22.9029 0.791016 20.0468 0.791016 16.9979C0.791016 7.88091 8.18176 0.490173 17.2987 0.490173C20.3483 0.490173 23.2045 1.31691 25.655 2.75881C26.6691 3.3551 27.6137 4.05651 28.4741 4.84956C31.7521 7.86474 33.8064 12.1918 33.8064 16.9979Z" fill="#F0CD00"/>
<path d="M33.806 16.9979C33.806 25.9093 26.7454 33.1714 17.9128 33.4941C9.08012 33.1714 2.01953 25.9093 2.01953 16.9979C2.01953 8.08638 9.08012 0.82433 17.9128 0.501587C26.7454 0.82433 33.806 8.08638 33.806 16.9979Z" fill="#FFDE50"/>
<path d="M28.4737 4.8496L5.14935 28.174C4.35698 27.3136 3.65557 26.3683 3.05859 25.3542L25.6546 2.75885C26.6687 3.35515 27.6133 4.05656 28.4737 4.8496Z" fill="#FFEA94"/>
<path d="M32.6663 10.9628L11.2615 32.3676C9.74617 31.772 8.33999 30.9587 7.08203 29.9662L30.2656 6.78265C31.2581 8.04061 32.0713 9.4468 32.6663 10.9628Z" fill="#FFEA94"/>
<path d="M30.1257 16.9979C30.1257 24.0821 24.3824 29.8254 17.2982 29.8254C14.8308 29.8254 12.5265 29.1287 10.5705 27.9213C9.71814 27.3958 8.9325 26.7725 8.22772 26.0677C7.70958 25.5503 7.23524 24.9877 6.81143 24.3873C6.22793 23.5606 5.73944 22.6618 5.36279 21.707C4.8049 20.2954 4.49092 18.7605 4.47205 17.1556C4.4707 17.103 4.4707 17.0505 4.4707 16.9979C4.4707 9.91375 10.2134 4.17041 17.2982 4.17041C17.3508 4.17041 17.404 4.17041 17.4566 4.17176C19.0615 4.19062 20.5957 4.50528 22.0073 5.0625C22.962 5.43982 23.8609 5.92764 24.6876 6.51114C25.2879 6.93562 25.8499 7.40929 26.368 7.92743C27.0728 8.63154 27.6961 9.41784 28.2216 10.2702C29.429 12.2262 30.1257 14.5305 30.1257 16.9979Z" fill="#FAA300"/>
<path d="M26.368 7.92743L8.22772 26.0677C7.70958 25.5503 7.23524 24.9877 6.81143 24.3873C6.22793 23.5606 5.73944 22.6618 5.36279 21.707C4.8049 20.2954 4.49092 18.7605 4.47205 17.1556C4.4707 17.103 4.4707 17.0505 4.4707 16.9979C4.4707 9.91375 10.2134 4.17041 17.2982 4.17041C17.3508 4.17041 17.404 4.17041 17.4566 4.17176C19.0615 4.19062 20.5957 4.50528 22.0073 5.0625C22.962 5.43982 23.8609 5.92764 24.6876 6.51114C25.2879 6.93562 25.8499 7.40929 26.368 7.92743Z" fill="#FFBD00"/>
<path d="M30.126 16.9979C30.126 24.0821 24.3827 29.8254 17.2985 29.8254C17.0553 29.8254 16.8141 29.8187 16.5742 29.8052C23.3215 29.4299 28.6767 23.8389 28.6767 16.9979C28.6767 10.157 23.3215 4.56592 16.5742 4.19062C16.8141 4.17715 17.0553 4.17041 17.2985 4.17041C24.3827 4.17041 30.126 9.91375 30.126 16.9979Z" fill="#F68E00"/>
<path d="M16.877 16.0123V10.8173C17.6866 11.264 18.2364 12.126 18.2364 13.1142C18.2364 13.8113 18.8015 14.3764 19.4986 14.3764C20.1957 14.3764 20.7608 13.8113 20.7608 13.1142C20.7608 10.7121 19.1062 8.68957 16.877 8.12534V7.09795C16.877 6.40086 16.3119 5.83575 15.6148 5.83575C14.9177 5.83575 14.3526 6.40086 14.3526 7.09795V8.12527C12.1234 8.68957 10.4688 10.7121 10.4688 13.1142C10.4688 14.5485 10.89 15.6669 11.7566 16.5335C12.3884 17.1653 13.2276 17.6328 14.3526 17.9756V23.1787C13.543 22.732 12.9932 21.8701 12.9932 20.8818C12.9932 20.1847 12.428 19.6196 11.731 19.6196C11.0339 19.6196 10.4688 20.1847 10.4688 20.8818C10.4688 23.2839 12.1234 25.3064 14.3526 25.8707V26.8981C14.3526 27.5952 14.9177 28.1603 15.6148 28.1603C16.3119 28.1603 16.877 27.5952 16.877 26.8981V25.8707C19.1062 25.3064 20.7608 23.284 20.7608 20.8818C20.7608 19.4674 20.3215 18.311 19.4551 17.4447C18.8255 16.8149 17.9758 16.3429 16.877 16.0123ZM13.5416 14.7485C13.2862 14.4932 12.9932 14.0767 12.9932 13.1142C12.9932 12.1259 13.543 11.264 14.3526 10.8172V15.2855C14.0122 15.1278 13.7427 14.9496 13.5416 14.7485ZM16.877 23.1787V18.6966C17.974 19.2075 18.2364 19.9383 18.2364 20.8818C18.2364 21.8701 17.6866 22.732 16.877 23.1787Z" fill="#F68E00"/>
<path d="M18.5606 16.0123V10.8173C19.3702 11.264 19.92 12.126 19.92 13.1142C19.92 13.8113 20.4851 14.3764 21.1822 14.3764C21.8793 14.3764 22.4444 13.8113 22.4444 13.1142C22.4444 10.7121 20.7898 8.68957 18.5606 8.12534V7.09795C18.5606 6.40086 17.9955 5.83575 17.2984 5.83575C16.6013 5.83575 16.0362 6.40086 16.0362 7.09795V8.12527C13.807 8.68957 12.1523 10.7121 12.1523 13.1142C12.1523 14.5485 12.5736 15.6669 13.4402 16.5335C14.072 17.1653 14.9112 17.6328 16.0362 17.9756V23.1787C15.2266 22.732 14.6767 21.8701 14.6767 20.8818C14.6767 20.1847 14.1116 19.6196 13.4145 19.6196C12.7174 19.6196 12.1523 20.1847 12.1523 20.8818C12.1523 23.2839 13.807 25.3064 16.0362 25.8707V26.8981C16.0362 27.5952 16.6013 28.1603 17.2984 28.1603C17.9955 28.1603 18.5606 27.5952 18.5606 26.8981V25.8707C20.7898 25.3064 22.4444 23.284 22.4444 20.8818C22.4444 19.4674 22.0051 18.311 21.1388 17.4447C20.5091 16.8149 19.6593 16.3429 18.5606 16.0123ZM15.2251 14.7485C14.9698 14.4932 14.6767 14.0767 14.6767 13.1142C14.6767 12.1259 15.2266 11.264 16.0362 10.8172V15.2855C15.6958 15.1278 15.4263 14.9496 15.2251 14.7485ZM18.5606 23.1787V18.6966C19.6576 19.2075 19.92 19.9383 19.92 20.8818C19.9199 21.8701 19.3702 22.732 18.5606 23.1787Z" fill="#FFEA94"/>
</g>
<defs>
<clipPath id="clip0">
<rect width="33.0154" height="33.0154" fill="white" transform="translate(0.791016 0.490173)"/>
</clipPath>
</defs>
</svg>
