<svg width="64" height="64" viewBox="0 0 64 64" fill="none" xmlns="http://www.w3.org/2000/svg">
<g clip-path="url(#clip0)">
<path d="M63.7202 32.0674C63.7202 49.4998 49.5885 63.6316 32.156 63.6316C22.9663 63.6316 14.6939 59.7047 8.92604 53.437C7.41095 51.7918 6.0698 49.9843 4.92833 48.0453C2.17258 43.3583 0.591797 37.8971 0.591797 32.0674C0.591797 14.6349 14.7235 0.503174 32.156 0.503174C37.987 0.503174 43.4483 2.08396 48.1339 4.841C50.0729 5.98117 51.8791 7.32233 53.5243 8.8387C59.7921 14.604 63.7202 22.8777 63.7202 32.0674Z" fill="#F0CD00"/>
<path d="M63.7219 32.0673C63.7219 49.1068 50.2214 62.9925 33.3326 63.6096C16.4438 62.9925 2.94336 49.1068 2.94336 32.0673C2.94336 15.0278 16.4438 1.14214 33.3326 0.525024C50.2214 1.14214 63.7219 15.0278 63.7219 32.0673Z" fill="#FFDE50"/>
<path d="M53.5237 8.83871L8.92544 53.437C7.41036 51.7918 6.0692 49.9843 4.92773 48.0453L48.1333 4.841C50.0723 5.98118 51.8785 7.32234 53.5237 8.83871Z" fill="#FFEA94"/>
<path d="M61.5405 20.5278L20.6126 61.4556C17.7152 60.3167 15.0264 58.7617 12.6211 56.864L56.9501 12.535C58.8478 14.9403 60.4029 17.629 61.5405 20.5278Z" fill="#FFEA94"/>
<path d="M56.6836 32.0674C56.6836 45.613 45.7018 56.5948 32.1562 56.5948C27.4383 56.5948 23.0322 55.2626 19.2922 52.9539C17.6625 51.949 16.1603 50.7573 14.8127 49.4097C13.8219 48.4203 12.9149 47.3445 12.1046 46.1966C10.9889 44.6158 10.0548 42.8972 9.33466 41.0716C8.26792 38.3725 7.66756 35.4377 7.63148 32.3689C7.62891 32.2684 7.62891 32.1679 7.62891 32.0674C7.62891 18.5219 18.6094 7.5401 32.1562 7.5401C32.2567 7.5401 32.3585 7.5401 32.459 7.54268C35.5278 7.57875 38.4613 8.1804 41.1604 9.24586C42.986 9.96732 44.7046 10.9001 46.2854 12.0158C47.4333 12.8274 48.5078 13.7331 49.4985 14.7239C50.8461 16.0702 52.0378 17.5737 53.0427 19.2034C55.3514 22.9434 56.6836 27.3495 56.6836 32.0674Z" fill="#FAA300"/>
<path d="M49.4985 14.7239L14.8127 49.4097C13.8219 48.4202 12.9149 47.3445 12.1046 46.1966C10.9889 44.6158 10.0548 42.8972 9.33466 41.0716C8.26792 38.3725 7.66756 35.4377 7.63148 32.3689C7.62891 32.2684 7.62891 32.1679 7.62891 32.0674C7.62891 18.5219 18.6094 7.5401 32.1562 7.5401C32.2567 7.5401 32.3585 7.5401 32.459 7.54268C35.5278 7.57875 38.4613 8.1804 41.1604 9.24586C42.986 9.96732 44.7046 10.9001 46.2854 12.0158C47.4333 12.8274 48.5078 13.7331 49.4985 14.7239Z" fill="#FFBD00"/>
<path d="M56.6818 32.0674C56.6818 45.613 45.7 56.5948 32.1545 56.5948C31.6894 56.5948 31.2282 56.5819 30.7695 56.5561C43.6709 55.8385 53.9106 45.1479 53.9106 32.0674C53.9106 18.987 43.6709 8.29635 30.7695 7.57875C31.2282 7.55298 31.6894 7.5401 32.1545 7.5401C45.7 7.5401 56.6818 18.5219 56.6818 32.0674Z" fill="#F68E00"/>
<path d="M33.418 37.3576C39.8379 37.3576 45.0608 32.1345 45.0608 25.7148C45.0608 19.295 39.8377 14.072 33.418 14.072H20.5743C19.1512 14.072 17.9977 15.2255 17.9977 16.6486V32.2042H16.2427C14.8196 32.2042 13.666 33.3578 13.666 34.7809C13.666 36.204 14.8196 37.3576 16.2427 37.3576H17.9977V40.3211H16.2427C14.8196 40.3211 13.666 41.4747 13.666 42.8978C13.666 44.3209 14.8196 45.4745 16.2427 45.4745H17.9977V48.1076C17.9977 49.5307 19.1512 50.6842 20.5743 50.6842C21.9974 50.6842 23.151 49.5307 23.151 48.1076V45.4745H32.1635C33.5866 45.4745 34.7402 44.3209 34.7402 42.8978C34.7402 41.4747 33.5866 40.3211 32.1635 40.3211H23.151V37.3576H33.418ZM23.151 19.2253H33.418C36.9963 19.2253 39.9074 22.1364 39.9074 25.7148C39.9074 29.293 36.9963 32.2042 33.418 32.2042H23.151V19.2253Z" fill="#F68E00"/>
<path d="M36.6406 37.3576C43.0606 37.3576 48.2835 32.1345 48.2835 25.7148C48.2835 19.295 43.0604 14.072 36.6406 14.072H23.797C22.3739 14.072 21.2203 15.2255 21.2203 16.6486V32.2042H19.4653C18.0422 32.2042 16.8887 33.3578 16.8887 34.7809C16.8887 36.204 18.0422 37.3576 19.4653 37.3576H21.2203V40.3211H19.4653C18.0422 40.3211 16.8887 41.4747 16.8887 42.8978C16.8887 44.3209 18.0422 45.4745 19.4653 45.4745H21.2203V48.1076C21.2203 49.5307 22.3739 50.6842 23.797 50.6842C25.2201 50.6842 26.3737 49.5307 26.3737 48.1076V45.4745H35.3862C36.8093 45.4745 37.9629 44.3209 37.9629 42.8978C37.9629 41.4747 36.8093 40.3211 35.3862 40.3211H26.3737V37.3576H36.6406ZM26.3737 19.2253H36.6406C40.219 19.2253 43.1301 22.1364 43.1301 25.7148C43.1301 29.293 40.219 32.2042 36.6406 32.2042H26.3737V19.2253Z" fill="#FFEA94"/>
</g>
<defs>
<clipPath id="clip0">
<rect width="63.1284" height="63.1284" fill="white" transform="translate(0.591797 0.503174)"/>
</clipPath>
</defs>
</svg>
