<svg width="70" height="70" viewBox="0 0 70 70" fill="none" xmlns="http://www.w3.org/2000/svg">
<path d="M10.2741 24.6773L0 31.8692L5.05839 36.3722L10.2941 38.2399L13.3824 32.9411L10.2741 24.6773Z" fill="#E6E7EA"/>
<path d="M59.7058 38.2397L64.9413 36.3725L70 31.8692L59.726 24.6774L58.3434 31.4586L59.7058 38.2397Z" fill="#88909E"/>
<path d="M10.2942 0V38.2399L21.2746 47.2573L35.0001 53.5294L36.3726 28.1373L35.0001 0H10.2942Z" fill="#F3F5F9"/>
<path d="M35 0V53.5294L48.8033 46.3596L59.7059 38.2399V0L35 0Z" fill="#E1E6F0"/>
<path d="M18.5294 8.23528H22.647V12.3529H18.5294V8.23528Z" fill="#C3CBD9"/>
<path d="M26.7647 8.23528V12.3529H35L36.3726 10.2941L35 8.23528H26.7647Z" fill="#C3CBD9"/>
<path d="M18.5294 16.4706H22.647V20.5882H18.5294V16.4706Z" fill="#C3CBD9"/>
<path d="M26.7646 20.5882H34.9999L36.3725 18.5293L34.9999 16.4705H26.7646V20.5882Z" fill="#C3CBD9"/>
<path d="M18.5293 24.7058H22.6469V28.8234H18.5293V24.7058Z" fill="#C3CBD9"/>
<path d="M26.7646 28.8234H34.9999L36.3725 26.7646L34.9999 24.7058H26.7646V28.8234Z" fill="#C3CBD9"/>
<path d="M26.7647 37.0589H35L36.3726 35L35 32.9412H26.7647V37.0589Z" fill="#C3CBD9"/>
<path d="M35 8.23528H51.4706V12.3529H35V8.23528Z" fill="#88909E"/>
<path d="M35 16.4706H51.4706V20.5882H35V16.4706Z" fill="#88909E"/>
<path d="M35 24.7058H51.4706V28.8235H35V24.7058Z" fill="#88909E"/>
<path d="M35 32.9412H43.2353V37.0589H35V32.9412Z" fill="#C3CBD9"/>
<path d="M69.9999 31.8692L43.6302 48.1886L52.5003 56.7681L69.9999 69.6141V31.8692Z" fill="#F1BF13"/>
<path d="M0 31.8692V69.6141L16.1961 58.6079L26.3698 48.1886L0 31.8692Z" fill="#F6CC28"/>
<path d="M26.3698 48.1886L0 69.614V70H35L36.3725 61.7647L35 53.5294L26.3698 48.1886Z" fill="#F6CC28"/>
<path d="M70 69.614L43.6303 48.1886L35 53.5294V70H70V69.614Z" fill="#F1BF13"/>
</svg>
