<svg width="70" height="70" viewBox="0 0 70 70" fill="none" xmlns="http://www.w3.org/2000/svg">
<path d="M24.7284 49.3554H28.8299V53.4569H24.7284V49.3554Z" fill="#707A8A"/>
<path d="M34.9821 49.3554H32.9313V53.4569H34.9821H37.0328V49.3554H34.9821Z" fill="#707A8A"/>
<path d="M41.1344 49.3554H45.236V53.4569H41.1344V49.3554Z" fill="#0F0F17"/>
<path d="M45.2361 14.4922V10.3906L40.7653 6.28906C40.3793 7.40906 37.8321 8.37416 34.9822 9.09179C31.7792 9.89857 28.1901 10.3906 26.7791 10.3906L24.7284 14.4922C22.4631 14.4922 20.6268 16.3284 20.6268 18.5937C20.6268 20.8587 22.4631 22.6953 24.7284 22.6953C24.7284 28.3554 29.3221 32.9492 34.9822 32.9492C40.6424 32.9492 45.2361 28.3554 45.2361 22.6953C47.5014 22.6953 49.3377 20.8587 49.3377 18.5937C49.3377 16.3284 47.5014 14.4922 45.2361 14.4922Z" fill="#FFE6CC"/>
<path d="M45.2359 22.6953C47.5012 22.6953 49.3375 20.8587 49.3375 18.5937C49.3375 16.3284 47.5012 14.4922 45.2359 14.4922V10.3906L40.7651 6.28906C40.3792 7.40906 37.832 8.37416 34.9821 9.09179V32.9492C40.6422 32.9492 45.2359 28.3554 45.2359 22.6953Z" fill="#FFCCB3"/>
<path d="M43.1853 32.9491H34.9822H26.7791C21.1254 32.9491 16.5252 37.5493 16.5252 43.203V45.2538H34.9822H53.4392V43.203C53.4392 37.5493 48.8391 32.9491 43.1853 32.9491Z" fill="#E6E7EA"/>
<path d="M53.4391 43.203C53.4391 37.5493 48.8389 32.9491 43.1852 32.9491H34.9821V45.2538H53.4391V43.203Z" fill="#88909E"/>
<path d="M34.9823 0C29.3221 0 24.7284 4.73046 24.7284 10.3906V14.4922H30.8807C32.4743 14.4922 33.8891 13.8291 34.9823 12.8258C35.7181 12.1507 36.3338 11.3476 36.6638 10.3906H45.2361C45.2361 4.71843 40.6763 0 34.9823 0Z" fill="#F6CC28"/>
<path d="M36.6636 10.3906H45.2359C45.2359 4.71843 40.676 0 34.9821 0V12.826C35.7179 12.1507 36.3337 11.3476 36.6636 10.3906Z" fill="#F1BF13"/>
<path d="M60.8111 47.2326C65.9861 47.2326 69.8283 42.8897 69.9359 37.942C70.01 36.3659 69.9359 34.6815 69.7036 32.791L69.4554 30.7423L67.4085 31.0046C64.9673 31.3191 62.4853 32.5747 60.4947 34.6296C58.8837 36.2753 57.8414 38.1944 57.3191 40.424L57.2884 40.4195C55.7413 51.0288 46.2932 59.5974 34.9822 59.5974C23.7725 59.5974 14.357 51.3355 12.69 40.4274L12.6704 40.4304C12.203 38.3241 11.1486 36.3719 9.47559 34.6356C7.47895 32.5749 4.99697 31.3191 2.55572 31.0046L0.508908 30.7423L0.258577 32.791C0.0302567 34.6815 -0.0458955 36.3699 0.0262918 37.9059C0.112424 41.1502 1.83932 44.1684 4.27058 45.7485C5.69245 46.7318 7.37682 47.2345 9.13913 47.2345C9.55475 47.2345 9.97625 47.1849 10.3979 47.1288C10.6579 47.7689 10.9323 48.3997 11.2383 49.0121C9.39055 48.7696 7.07372 48.8233 4.79736 49.9501L2.91474 50.8815C4.02695 52.9789 5.08788 55.175 6.48761 57.0718C8.29803 59.7094 11.2781 61.3475 14.2061 61.3475C14.6181 61.2578 17.2454 61.6445 20.1253 59.1151C20.6916 59.4955 21.2419 59.8901 21.8375 60.2269C20.3034 60.9844 18.33 62.3167 17.0197 64.586L15.9462 66.4485L18.4196 67.863C20.8998 69.1547 23.3937 69.9999 26.1762 69.9999C30.1195 69.9999 33.7322 67.9326 34.8749 63.6894C34.9114 63.6897 34.9454 63.699 34.9821 63.699C35.0206 63.699 35.0567 63.6887 35.0953 63.6884C36.252 67.9117 39.8197 70 43.79 70C46.6128 70 49.7303 68.7729 52.1754 67.3299L53.9198 66.3025L52.9143 64.5442C51.8714 62.7232 50.2286 61.2836 48.0556 60.1953C48.6635 59.8507 49.2283 59.453 49.8063 59.0635C51.4576 60.5401 53.473 61.3592 55.6499 61.3639H55.718C58.662 61.3639 61.5559 59.7978 63.5286 57.0801C64.4889 55.6156 65.43 54.2218 66.1521 52.6521L66.9853 50.8436L65.2008 49.9583C63.314 49.0236 61.1769 48.7495 58.7042 49.0631C59.0247 48.4356 59.3006 47.7841 59.5706 47.1285C59.9862 47.1842 60.4013 47.2326 60.8111 47.2326Z" fill="#F6CC28"/>
<path d="M43.7899 69.9999C46.6128 69.9999 49.7302 68.7727 52.1753 67.3298L53.9197 66.3023L52.9142 64.544C51.8714 62.7231 50.2285 61.2834 48.0555 60.1951C48.6634 59.8506 49.2282 59.4529 49.8062 59.0634C51.4575 60.5399 53.4729 61.359 55.6498 61.3638H55.7179C58.6619 61.3638 61.5558 59.7977 63.5285 57.08C64.4888 55.6155 65.4299 54.2216 66.152 52.652L66.9852 50.8435L65.2007 49.9582C63.3139 49.0235 61.1768 48.7493 58.7041 49.063C59.0246 48.4354 59.3005 47.784 59.5705 47.1284C59.9859 47.1842 60.4009 47.2326 60.8107 47.2326C65.9858 47.2326 69.828 42.8897 69.9356 37.942C70.0097 36.3659 69.9356 34.6815 69.7033 32.791L69.455 30.7423L67.4082 31.0046C64.9669 31.3191 62.485 32.5747 60.4943 34.6296C58.8834 36.2753 57.841 38.1944 57.3188 40.424L57.288 40.4195C55.7409 51.029 46.2928 59.5974 34.9818 59.5974V63.699C35.0204 63.699 35.0565 63.6887 35.095 63.6884C36.252 67.9115 39.8196 69.9999 43.7899 69.9999Z" fill="#F1BF13"/>
<path d="M34.9821 49.3554H37.0328V53.4569H34.9821V49.3554Z" fill="#0F0F17"/>
</svg>
