<svg width="50" height="70" viewBox="0 0 50 70" fill="none" xmlns="http://www.w3.org/2000/svg">
<path d="M0 0V70H24.7059L26.7647 35L24.7059 0C23.3333 0 1.37255 0 0 0Z" fill="#F6CC28"/>
<path d="M49.4118 0C48.0393 0 26.0785 0 24.7059 0V70H49.4118C49.4118 68.0256 49.4118 1.97441 49.4118 0Z" fill="#F1BF13"/>
<path d="M4.375 4.11769V55.5883L14.6691 57.6471L24.9632 55.5883L27.0221 29.853L24.9632 4.11769C23.5731 4.11769 5.76525 4.11769 4.375 4.11769Z" fill="#F3F5F9"/>
<path d="M45.2942 4.11769C43.9041 4.11769 26.0962 4.11769 24.7059 4.11769V55.5883L35.0001 57.6471L45.2942 55.5883C45.2942 54.1371 45.2942 5.56889 45.2942 4.11769Z" fill="#E1E6F0"/>
<path d="M4.375 54.25H45.325V58.625H4.375V54.25Z" fill="#C3CBD9"/>
<path d="M20.2761 41.1265L12.25 33.6872L15.3125 30.6249L20.2761 35.3266L35 21.7399L37.8998 24.6397L20.2761 41.1265Z" fill="#88909E"/>
</svg>
