<svg width="58" height="70" viewBox="0 0 58 70" fill="none" xmlns="http://www.w3.org/2000/svg">
<path d="M12.5781 0V61.6602H57.6953V0H12.5781Z" fill="#F6CC28"/>
<path d="M35.1367 0H57.6953V61.6602H35.1367V0Z" fill="#F1BF13"/>
<path d="M0 8.75V70H49.875V8.75H0Z" fill="#F3F5F9"/>
<path d="M18.375 8.75H49.875V70H18.375V8.75Z" fill="#E1E6F0"/>
<path d="M7.92973 25.5952L3.40366 21.069L6.30346 18.1692L7.92973 19.7953L12.6322 15.093L15.532 17.9928L7.92973 25.5952Z" fill="#88909E"/>
<path d="M18.375 20.6445H38.1768V24.7461H18.375V20.6445Z" fill="#C3CBD9"/>
<path d="M7.92973 37.9L3.40366 33.3738L6.30346 30.474L7.92973 32.1001L12.6322 27.3978L15.532 30.2976L7.92973 37.9Z" fill="#88909E"/>
<path d="M18.375 32.9492H38.1768V37.0508H18.375V32.9492Z" fill="#C3CBD9"/>
<path d="M7.92973 50.2046L3.40366 45.6784L6.30346 42.7785L7.92973 44.4047L12.6322 39.7024L15.532 42.6022L7.92973 50.2046Z" fill="#88909E"/>
<path d="M18.375 45.2539H38.1768V49.3555H18.375V45.2539Z" fill="#C3CBD9"/>
<path d="M7.92973 62.5093L3.40366 57.983L6.30346 55.0832L7.92973 56.7094L12.6322 52.0071L15.532 54.9069L7.92973 62.5093Z" fill="#88909E"/>
<path d="M18.375 57.5586H38.1768V61.6602H18.375V57.5586Z" fill="#C3CBD9"/>
</svg>
