<svg width="26" height="26" viewBox="0 0 26 26" fill="none" xmlns="http://www.w3.org/2000/svg">
<path d="M25.2407 13C25.2407 19.759 19.7619 25.2383 13.0024 25.2383H12.9999C6.24193 25.2368 0.76416 19.758 0.76416 13C0.76416 6.24203 6.24193 0.763242 12.9999 0.761719H13.0024C19.7619 0.761719 25.2407 6.24102 25.2407 13Z" fill="#FFCD40"/>
<path d="M25.2408 13C25.2408 19.759 19.762 25.2383 13.0025 25.2383H13V0.761719H13.0025C19.762 0.761719 25.2408 6.24102 25.2408 13Z" fill="#F1BF13"/>
<path d="M22.1924 3.80758C19.7371 1.3523 16.4724 0 13 0C9.52758 0 6.26285 1.3523 3.80758 3.80758C1.3523 6.26285 0 9.52758 0 13C0 16.4724 1.3523 19.7371 3.80758 22.1924C6.26285 24.6477 9.52758 26 13 26C16.4724 26 19.7371 24.6477 22.1924 22.1924C24.6477 19.7371 26 16.4724 26 13C26 9.52758 24.6477 6.26285 22.1924 3.80758ZM21.1154 21.1154C18.9475 23.2827 16.0657 24.4766 13 24.4766C9.93434 24.4766 7.0525 23.2827 4.88465 21.1154C2.7173 18.9475 1.52344 16.0657 1.52344 13C1.52344 9.93434 2.7173 7.0525 4.88465 4.88465C7.0525 2.7173 9.93434 1.52344 13 1.52344C16.0657 1.52344 18.9475 2.7173 21.1154 4.88465C23.2827 7.0525 24.4766 9.93434 24.4766 13C24.4766 16.0657 23.2827 18.9475 21.1154 21.1154Z" fill="#F1BF13"/>
<path d="M26 13C26 16.4724 24.6477 19.7371 22.1924 22.1924C19.7371 24.6477 16.4724 26 13 26V24.4766C16.0657 24.4766 18.9475 23.2827 21.1154 21.1154C23.2827 18.9475 24.4766 16.0657 24.4766 13C24.4766 9.93434 23.2827 7.0525 21.1154 4.88465C18.9475 2.7173 16.0657 1.52344 13 1.52344V0C16.4724 0 19.7371 1.3523 22.1924 3.80758C24.6477 6.26285 26 9.52758 26 13Z" fill="#FFD951"/>
<mask id="mask0" mask-type="alpha" maskUnits="userSpaceOnUse" x="13" y="5" width="10" height="16">
<rect x="13" y="5.58594" width="9.59766" height="14.625" fill="#C4C4C4"/>
</mask>
<g mask="url(#mask0)">
<path d="M18.0854 7.37325L21.2166 10.5044C22.584 11.8719 22.584 14.1115 21.2166 15.4789L18.0854 18.6101C16.7179 19.9776 14.4783 19.9776 13.1109 18.6101L9.9797 15.4789C8.61224 14.1115 8.61224 11.8719 9.9797 10.5044L13.1109 7.37325C14.4801 6.00579 16.7179 6.00579 18.0854 7.37325ZM16.3995 8.74248L19.8491 12.1921C20.2896 12.6326 20.2896 13.3526 19.8491 13.7931L16.3995 17.2427C15.959 17.6831 15.239 17.6831 14.7985 17.2427L11.3489 13.7931C10.9084 13.3526 10.9084 12.6326 11.3489 12.1921L14.7985 8.74248C15.239 8.30199 15.959 8.30199 16.3995 8.74248Z" stroke="#FFD951" stroke-width="1.4173" stroke-miterlimit="22.9256"/>
<path fill-rule="evenodd" clip-rule="evenodd" d="M12.9907 7.37325L13.0508 7.4334L11.5224 8.96184L11.303 8.74248C10.8625 8.30199 10.1425 8.30199 9.70203 8.74248L6.25243 12.1921C5.81194 12.6326 5.81194 13.3526 6.25243 13.7931L9.70203 17.2427C10.1425 17.6831 10.8625 17.6831 11.303 17.2427L14.7526 13.7931C15.1931 13.3526 15.1931 12.6326 14.7526 12.1921L13.0508 10.4903L14.5792 8.96184L16.1218 10.5044C17.4893 11.8719 17.4893 14.1115 16.1218 15.4789L12.9907 18.6101C11.6232 19.9776 9.3836 19.9776 8.01615 18.6101L4.88497 15.4789C3.51751 14.1115 3.51751 11.8719 4.88497 10.5044L8.01615 7.37325C9.38537 6.00579 11.6232 6.00579 12.9907 7.37325Z" fill="#FFD951"/>
</g>
<mask id="mask1" mask-type="alpha" maskUnits="userSpaceOnUse" x="3" y="5" width="10" height="16">
<rect x="3.55469" y="5.6875" width="9.44531" height="14.4219" fill="#C4C4C4"/>
</mask>
<g mask="url(#mask1)">
<path d="M18.0854 7.37325L21.2166 10.5044C22.584 11.8719 22.584 14.1115 21.2166 15.4789L18.0854 18.6101C16.7179 19.9776 14.4783 19.9776 13.1109 18.6101L9.9797 15.4789C8.61224 14.1115 8.61224 11.8719 9.9797 10.5044L13.1109 7.37325C14.4801 6.00579 16.7179 6.00579 18.0854 7.37325ZM16.3995 8.74248L19.8491 12.1921C20.2896 12.6326 20.2896 13.3526 19.8491 13.7931L16.3995 17.2427C15.959 17.6831 15.239 17.6831 14.7985 17.2427L11.3489 13.7931C10.9084 13.3526 10.9084 12.6326 11.3489 12.1921L14.7985 8.74248C15.239 8.30199 15.959 8.30199 16.3995 8.74248Z" stroke="#E1AF00" stroke-width="1.4173" stroke-miterlimit="22.9256"/>
<path fill-rule="evenodd" clip-rule="evenodd" d="M12.9907 7.37325L13.0508 7.4334L11.5224 8.96184L11.303 8.74248C10.8625 8.30199 10.1425 8.30199 9.70203 8.74248L6.25243 12.1921C5.81194 12.6326 5.81194 13.3526 6.25243 13.7931L9.70203 17.2427C10.1425 17.6831 10.8625 17.6831 11.303 17.2427L14.7526 13.7931C15.1931 13.3526 15.1931 12.6326 14.7526 12.1921L13.0508 10.4903L14.5792 8.96184L16.1218 10.5044C17.4893 11.8719 17.4893 14.1115 16.1218 15.4789L12.9907 18.6101C11.6232 19.9776 9.3836 19.9776 8.01615 18.6101L4.88497 15.4789C3.51751 14.1115 3.51751 11.8719 4.88497 10.5044L8.01615 7.37325C9.38537 6.00579 11.6232 6.00579 12.9907 7.37325Z" fill="#E1AF00"/>
</g>
</svg>
