<svg width="32" height="32" viewBox="0 0 32 32" fill="none" xmlns="http://www.w3.org/2000/svg">
<path d="M4.69672 11.281L0 14.5687L2.31241 16.6273L4.70588 17.481L6.11765 15.0588L4.69672 11.281Z" fill="#E6E7EA"/>
<path d="M27.2942 17.481L29.6875 16.6274L32.0001 14.5688L27.3034 11.2811L26.6714 14.3811L27.2942 17.481Z" fill="#88909E"/>
<path d="M4.70581 0V17.4811L9.72542 21.6033L15.9999 24.4706L16.6274 12.8627L15.9999 0H4.70581Z" fill="#F3F5F9"/>
<path d="M16 0V24.4706L22.3101 21.193L27.2941 17.4811V0L16 0Z" fill="#E1E6F0"/>
<path d="M8.47046 3.76471H10.3528V5.64706H8.47046V3.76471Z" fill="#C3CBD9"/>
<path d="M12.2354 3.76471V5.64706H16.0001L16.6275 4.70589L16.0001 3.76471H12.2354Z" fill="#C3CBD9"/>
<path d="M8.47046 7.52936H10.3528V9.41171H8.47046V7.52936Z" fill="#C3CBD9"/>
<path d="M12.2351 9.41177H15.9998L16.6273 8.4706L15.9998 7.52942H12.2351V9.41177Z" fill="#C3CBD9"/>
<path d="M8.47046 11.2941H10.3528V13.1765H8.47046V11.2941Z" fill="#C3CBD9"/>
<path d="M12.2351 13.1765H15.9998L16.6273 12.2353L15.9998 11.2941H12.2351V13.1765Z" fill="#C3CBD9"/>
<path d="M12.2354 16.9412H16.0001L16.6275 16L16.0001 15.0588H12.2354V16.9412Z" fill="#C3CBD9"/>
<path d="M16 3.76471H23.5294V5.64706H16V3.76471Z" fill="#88909E"/>
<path d="M16 7.52936H23.5294V9.41171H16V7.52936Z" fill="#88909E"/>
<path d="M16 11.2941H23.5294V13.1764H16V11.2941Z" fill="#88909E"/>
<path d="M16 15.0588H19.7647V16.9412H16V15.0588Z" fill="#C3CBD9"/>
<path d="M32 14.5687L19.9453 22.029L24.0002 25.9511L32 31.8235V14.5687Z" fill="#F1BF13"/>
<path d="M0 14.5687V31.8235L7.40392 26.7921L12.0548 22.029L0 14.5687Z" fill="#F6CC28"/>
<path d="M12.0548 22.029L0 31.8235V31.9999H16L16.6274 28.2352L16 24.4705L12.0548 22.029Z" fill="#F6CC28"/>
<path d="M32 31.8235L19.9453 22.029L16 24.4705V31.9999H32V31.8235Z" fill="#F1BF13"/>
</svg>
