<svg width="23" height="32" viewBox="0 0 23 32" fill="none" xmlns="http://www.w3.org/2000/svg">
<path d="M0 0V32H11.2941L12.2353 16L11.2941 0C10.6667 0 0.627451 0 0 0Z" fill="#F6CC28"/>
<path d="M22.5883 0C21.9609 0 11.9216 0 11.2942 0V32H22.5883C22.5883 31.0974 22.5883 0.902588 22.5883 0Z" fill="#F1BF13"/>
<path d="M2 1.88251V25.4119L6.70588 26.3531L11.4118 25.4119L12.3529 13.6472L11.4118 1.88251C10.7763 1.88251 2.63555 1.88251 2 1.88251Z" fill="#F3F5F9"/>
<path d="M20.706 1.88251C20.0705 1.88251 11.9297 1.88251 11.2942 1.88251V25.4119L16.0001 26.3531L20.706 25.4119C20.706 24.7485 20.706 2.54591 20.706 1.88251Z" fill="#E1E6F0"/>
<path d="M2 24.8H20.72V26.8H2V24.8Z" fill="#C3CBD9"/>
<path d="M9.26918 18.8008L5.6001 15.3999L7.0001 14L9.26918 16.1494L16.0001 9.93828L17.3257 11.2639L9.26918 18.8008Z" fill="#88909E"/>
</svg>
