<svg width="27" height="32" viewBox="0 0 27 32" fill="none" xmlns="http://www.w3.org/2000/svg">
<path d="M5.75 0V28.1875H26.375V0H5.75Z" fill="#F6CC28"/>
<path d="M16.0625 0H26.375V28.1875H16.0625V0Z" fill="#F1BF13"/>
<path d="M0 4V32H22.8V4H0Z" fill="#F3F5F9"/>
<path d="M8.3999 4H22.7999V32H8.3999V4Z" fill="#E1E6F0"/>
<path d="M3.62497 11.7007L1.55591 9.63153L2.88153 8.30591L3.62497 9.04928L5.77466 6.89966L7.10029 8.22528L3.62497 11.7007Z" fill="#88909E"/>
<path d="M8.3999 9.4375H17.4522V11.3125H8.3999V9.4375Z" fill="#C3CBD9"/>
<path d="M3.62497 17.3257L1.55591 15.2565L2.88153 13.9309L3.62497 14.6743L5.77466 12.5247L7.10029 13.8503L3.62497 17.3257Z" fill="#88909E"/>
<path d="M8.3999 15.0625H17.4522V16.9375H8.3999V15.0625Z" fill="#C3CBD9"/>
<path d="M3.62497 22.9507L1.55591 20.8815L2.88153 19.5559L3.62497 20.2993L5.77466 18.1497L7.10029 19.4753L3.62497 22.9507Z" fill="#88909E"/>
<path d="M8.3999 20.6875H17.4522V22.5625H8.3999V20.6875Z" fill="#C3CBD9"/>
<path d="M3.62497 28.5757L1.55591 26.5065L2.88153 25.1809L3.62497 25.9243L5.77466 23.7747L7.10029 25.1003L3.62497 28.5757Z" fill="#88909E"/>
<path d="M8.3999 26.3125H17.4522V28.1875H8.3999V26.3125Z" fill="#C3CBD9"/>
</svg>
