<svg width="18" height="18" viewBox="0 0 18 18" fill="none" xmlns="http://www.w3.org/2000/svg">
<path fill-rule="evenodd" clip-rule="evenodd" d="M9.00093 0.466797C6.68339 0.466797 6.39255 0.47693 5.48232 0.518353C4.57386 0.559953 3.95377 0.703777 3.41118 0.914802C2.84993 1.13276 2.37384 1.42432 1.89952 1.89881C1.42485 2.37313 1.13329 2.84922 0.914624 3.41029C0.703066 3.95306 0.559065 4.57333 0.518175 5.48143C0.477464 6.39166 0.466797 6.68268 0.466797 9.00022C0.466797 11.3178 0.477108 11.6077 0.518353 12.5179C0.560131 13.4264 0.703955 14.0465 0.914802 14.5891C1.13294 15.1503 1.4245 15.6264 1.89899 16.1007C2.37313 16.5754 2.84922 16.8677 3.41012 17.0856C3.95306 17.2967 4.57333 17.4405 5.4816 17.4821C6.39184 17.5235 6.68251 17.5336 8.99986 17.5336C11.3176 17.5336 11.6075 17.5235 12.5178 17.4821C13.4262 17.4405 14.047 17.2967 14.59 17.0856C15.151 16.8677 15.6264 16.5754 16.1006 16.1007C16.5752 15.6264 16.8668 15.1503 17.0855 14.5893C17.2952 14.0465 17.4392 13.4262 17.4819 12.5181C17.5228 11.6079 17.5335 11.3178 17.5335 9.00022C17.5335 6.68268 17.5228 6.39184 17.4819 5.4816C17.4392 4.57315 17.2952 3.95306 17.0855 3.41047C16.8668 2.84922 16.5752 2.37313 16.1006 1.89881C15.6259 1.42414 15.1512 1.13258 14.5894 0.914802C14.0454 0.703777 13.425 0.559953 12.5165 0.518353C11.6063 0.47693 11.3165 0.466797 8.99826 0.466797H9.00093ZM8.23489 2.00464C8.38353 2.00441 8.54343 2.00448 8.71599 2.00456L9.00041 2.00464C11.2788 2.00464 11.5489 2.01282 12.4486 2.05371C13.2806 2.09176 13.7322 2.23078 14.033 2.34758C14.4312 2.50225 14.7151 2.68714 15.0136 2.98581C15.3123 3.28448 15.4972 3.56893 15.6522 3.96715C15.769 4.2676 15.9082 4.71916 15.9461 5.55117C15.987 6.45074 15.9959 6.72096 15.9959 8.99832C15.9959 11.2757 15.987 11.5459 15.9461 12.4455C15.908 13.2775 15.769 13.729 15.6522 14.0295C15.4975 14.4277 15.3123 14.7113 15.0136 15.0098C14.715 15.3084 14.4314 15.4933 14.033 15.648C13.7325 15.7653 13.2806 15.904 12.4486 15.942C11.5491 15.9829 11.2788 15.9918 9.00041 15.9918C6.72181 15.9918 6.45176 15.9829 5.55219 15.942C4.72018 15.9036 4.26862 15.7646 3.96764 15.6478C3.56942 15.4931 3.28497 15.3083 2.9863 15.0096C2.68763 14.7109 2.50274 14.4272 2.34772 14.0288C2.23091 13.7283 2.09171 13.2768 2.05385 12.4448C2.01296 11.5452 2.00478 11.275 2.00478 8.99618C2.00478 6.7174 2.01296 6.4486 2.05385 5.54904C2.09189 4.71703 2.23091 4.26547 2.34772 3.96466C2.50238 3.56644 2.68763 3.28199 2.9863 2.98332C3.28497 2.68465 3.56942 2.49976 3.96764 2.34474C4.26845 2.2274 4.72018 2.08873 5.55219 2.05051C6.3394 2.01496 6.64447 2.00429 8.23489 2.00251V2.00464ZM13.556 3.42118C12.9907 3.42118 12.532 3.87932 12.532 4.44484C12.532 5.01018 12.9907 5.46885 13.556 5.46885C14.1214 5.46885 14.58 5.01018 14.58 4.44484C14.58 3.8795 14.1214 3.42083 13.556 3.42083V3.42118ZM4.61823 9.00064C4.61823 6.58059 6.58029 4.61847 9.00032 4.61837C11.4204 4.61837 13.3821 6.58053 13.3821 9.00064C13.3821 11.4208 11.4206 13.382 9.0005 13.382C6.58039 13.382 4.61823 11.4208 4.61823 9.00064ZM11.8452 8.99961C11.8452 7.42857 10.5716 6.15513 9.00076 6.15513C7.42972 6.15513 6.15628 7.42857 6.15628 8.99961C6.15628 10.5705 7.42972 11.8441 9.00076 11.8441C10.5716 11.8441 11.8452 10.5705 11.8452 8.99961Z" fill="#0F0F17"/>
</svg>
