<svg width="246" height="52" viewBox="0 0 246 52" fill="none" xmlns="http://www.w3.org/2000/svg">
<path d="M53.5294 4.85908L65.3114 16.641C70.4568 21.7865 70.4568 30.2135 65.3114 35.359L53.5294 47.1409C48.384 52.2864 39.9569 52.2864 34.8115 47.1409L23.0296 35.359C17.8841 30.2135 17.8841 21.7865 23.0296 16.641L34.8115 4.85908C39.9636 -0.286361 48.384 -0.286361 53.5294 4.85908ZM47.1858 10.0112L60.1659 22.9913C61.8234 24.6487 61.8234 27.3579 60.1659 29.0154L47.1858 41.9955C45.5284 43.6529 42.8192 43.6529 41.1617 41.9955L28.1817 29.0154C26.5242 27.3579 26.5242 24.6487 28.1817 22.9913L41.1617 10.0112C42.8192 8.35372 45.5284 8.35372 47.1858 10.0112Z" stroke="white" stroke-width="1.4173" stroke-miterlimit="22.9256"/>
<path fill-rule="evenodd" clip-rule="evenodd" d="M34.359 4.85908L34.5853 5.0854L28.8341 10.8366L28.0087 10.0112C26.3513 8.35372 23.6421 8.35372 21.9846 10.0112L9.00453 22.9913C7.34707 24.6487 7.34707 27.3579 9.00453 29.0154L21.9846 41.9955C23.6421 43.6529 26.3513 43.6529 28.0087 41.9955L40.9888 29.0154C42.6463 27.3579 42.6463 24.6487 40.9888 22.9913L34.5853 16.5878L40.3365 10.8366L46.1409 16.641C51.2864 21.7865 51.2864 30.2135 46.1409 35.359L34.359 47.1409C29.2135 52.2864 20.7865 52.2864 15.641 47.1409L3.85908 35.359C-1.28636 30.2135 -1.28636 21.7865 3.85908 16.641L15.641 4.85908C20.7931 -0.286361 29.2135 -0.286361 34.359 4.85908Z" fill="white"/>
<path d="M87.2691 35.7943H89.5123V28.6319H94.5113C98.0792 28.6319 100.163 26.1424 100.163 23.2003C100.163 20.2515 98.1324 17.7686 94.5113 17.7686H87.2691V35.7943ZM97.8395 23.1936C97.8395 25.2238 96.3818 26.6283 94.245 26.6283H89.5123V19.7655H94.245C96.3751 19.7655 97.8395 21.17 97.8395 23.1936ZM115.16 17.7619L110.028 28.9248L103.864 17.7619H101.268L108.863 31.0083L108.563 31.5475C107.591 33.4113 106.912 34.1169 105.508 34.1169C104.995 34.1169 104.536 33.9837 104.157 33.7907L103.564 35.7078C104.103 35.954 104.915 36.1138 105.594 36.1138C108.164 36.1138 109.435 34.7892 110.487 32.5992L117.702 17.7619H115.16ZM137.918 35.7943H140.7L132.54 26.3355L140.055 17.7686H137.246L129.271 27.0943V17.7619H127.028V35.7876H129.271V29.7303L131.082 27.6734L137.918 35.7943ZM141.24 26.7881C141.24 32.1133 144.834 36.1138 150.186 36.1138C155.511 36.1138 159.132 32.1133 159.132 26.7881C159.132 21.4629 155.511 17.4624 150.186 17.4624C144.841 17.4691 141.24 21.4696 141.24 26.7881ZM156.809 26.7881C156.809 30.975 154.213 34.1102 150.186 34.1102C146.132 34.1102 143.563 30.975 143.563 26.7881C143.563 22.5746 146.132 19.466 150.186 19.466C154.213 19.466 156.809 22.5746 156.809 26.7881ZM175.434 35.7943H177.677V17.7619H175.434V25.5167H164.89V17.7619H162.647V35.7876H164.89V27.5203H175.434V35.7943ZM194.678 35.7943H196.921V17.7619H194.678V25.5167H184.134V17.7619H181.891V35.7876H184.134V27.5203H194.678V35.7943ZM201.134 35.7943H212.943V33.7973H203.378V27.5802H212.757V25.5833H203.378V19.7722H212.943V17.7753H201.134V35.7943ZM227.408 35.7943H230.19L222.029 26.3355L229.544 17.7686H226.735L218.761 27.0943V17.7619H216.518V35.7876H218.761V29.7303L220.571 27.6734L227.408 35.7943ZM237.219 35.7943H239.462V19.7655H245.194V17.7686H231.515V19.7655H237.219V35.7943Z" fill="white"/>
</svg>
