<svg width="24" height="14" viewBox="0 0 24 14" fill="none" xmlns="http://www.w3.org/2000/svg">
<path d="M15.4404 1.49689H8.70215V12.5024H15.4404V1.49689Z" fill="#8C97A2"/>
<path d="M9.39627 7.0002C9.39543 5.94047 9.63566 4.89443 10.0988 3.94125C10.5619 2.98807 11.2358 2.15272 12.0694 1.49842C11.0369 0.687002 9.79697 0.182427 8.49129 0.0423672C7.1856 -0.0976926 5.86685 0.132413 4.68576 0.706385C3.50467 1.28036 2.50888 2.17504 1.81221 3.28818C1.11554 4.40131 0.746094 5.688 0.746094 7.00117C0.746094 8.31435 1.11554 9.60103 1.81221 10.7142C2.50888 11.8273 3.50467 12.722 4.68576 13.296C5.86685 13.8699 7.1856 14.1 8.49129 13.96C9.79697 13.8199 11.0369 13.3153 12.0694 12.5039C11.2355 11.8494 10.5615 11.0138 10.0984 10.0602C9.63523 9.10668 9.39514 8.06026 9.39627 7.0002Z" fill="#8C97A2"/>
<path d="M23.3937 7.0006C23.3936 8.31387 23.0241 9.60064 22.3273 10.7138C21.6305 11.827 20.6346 12.7217 19.4533 13.2955C18.2721 13.8694 16.9532 14.0994 15.6475 13.9591C14.3417 13.8189 13.1017 13.3141 12.0693 12.5024C12.9026 11.8475 13.5763 11.0119 14.0395 10.0587C14.5028 9.10545 14.7435 8.05946 14.7435 6.99963C14.7435 5.9398 14.5028 4.89381 14.0395 3.94057C13.5763 2.98734 12.9026 2.15176 12.0693 1.49688C13.1017 0.685207 14.3417 0.180388 15.6475 0.0401265C16.9532 -0.100134 18.2721 0.129823 19.4533 0.703714C20.6346 1.2776 21.6305 2.17227 22.3273 3.28545C23.0241 4.39862 23.3936 5.68539 23.3937 6.99866V7.0006Z" fill="#C3CBD9"/>
</svg>
