<svg width="23" height="14" viewBox="0 0 23 14" fill="none" xmlns="http://www.w3.org/2000/svg">
<path d="M0 0.204895H21.3591V13.4272H0V0.204895Z" fill="#C3CBD9"/>
<path d="M2.03418 4.63434C3.1849 4.29005 4.08516 3.38979 4.42945 2.23907H16.9296C17.2738 3.38986 18.1741 4.29011 19.3248 4.63434V8.99769C18.1741 9.34191 17.2738 10.2422 16.9296 11.393H4.57692H4.42894C4.08478 10.2424 3.18471 9.3421 2.03418 8.99769V4.63434Z" fill="white"/>
<path d="M10.6785 9.35874C12.0828 9.35874 13.2212 8.2203 13.2212 6.81598C13.2212 5.41165 12.0828 4.27322 10.6785 4.27322C9.27417 4.27322 8.13574 5.41165 8.13574 6.81598C8.13574 8.2203 9.27417 9.35874 10.6785 9.35874Z" fill="#8C97A2"/>
<path d="M5.0857 7.32453C5.36656 7.32453 5.59425 7.09685 5.59425 6.81598C5.59425 6.53512 5.36656 6.30743 5.0857 6.30743C4.80483 6.30743 4.57715 6.53512 4.57715 6.81598C4.57715 7.09685 4.80483 7.32453 5.0857 7.32453Z" fill="#8C97A2"/>
<path d="M16.2742 7.32453C16.555 7.32453 16.7827 7.09685 16.7827 6.81598C16.7827 6.53512 16.555 6.30743 16.2742 6.30743C15.9933 6.30743 15.7656 6.53512 15.7656 6.81598C15.7656 7.09685 15.9933 7.32453 16.2742 7.32453Z" fill="#8C97A2"/>
</svg>
