<svg width="14" height="14" viewBox="0 0 14 14" fill="none" xmlns="http://www.w3.org/2000/svg">
<path d="M6.21714 12.453C2.78247 12.453 0 9.66555 0 6.22588C0 2.78622 2.78372 0 6.21714 0C9.65056 0 12.4343 2.78747 12.4343 6.22588C12.4343 7.39285 12.1094 8.48984 11.5572 9.42066C11.5397 9.44815 11.4935 9.4394 11.4847 9.40317C11.2686 7.87387 10.3365 7.03051 8.98211 6.77813C8.86467 6.76064 8.84593 6.68692 8.99961 6.67068C9.41442 6.63444 10.0029 6.64319 10.3103 6.69692C10.3277 6.54324 10.3365 6.37956 10.3365 6.21714C10.3365 3.94443 8.49359 2.09778 6.22463 2.09778C3.95693 2.09778 2.11278 3.94443 2.11278 6.21714C2.11278 8.48859 3.95693 10.3352 6.22463 10.3352H6.4133C6.34833 9.96791 6.32209 9.59558 6.33208 9.222C6.34083 8.96837 6.39581 8.93089 6.50451 9.1308C7.07424 10.1166 7.88637 11.0049 9.47689 11.3573C10.7788 11.6471 12.0794 11.982 13.48 13.7649C13.6062 13.9186 13.4176 14.081 13.2714 13.9548C11.8445 12.6879 10.5426 12.2706 9.35944 12.2706C8.0338 12.2818 7.13047 12.453 6.21714 12.453ZM9.37943 9.83797C9.52436 9.83797 9.68679 9.90169 9.83172 10.0279C10.1116 10.264 10.1928 10.5351 10.0491 10.7338C9.96791 10.8325 9.83172 10.8975 9.67804 10.8975C9.52436 10.8975 9.36194 10.8425 9.25324 10.7426C8.99961 10.5252 8.92839 10.1628 9.09081 9.96541C9.15329 9.8817 9.25324 9.83797 9.37943 9.83797ZM10.7538 8.81469C10.9887 8.90465 11.0786 9.25824 11.0974 9.41192C11.1336 9.69179 11.0524 9.80174 10.9612 9.80174C10.8712 9.80174 10.7438 9.69179 10.6089 9.47564C10.4727 9.25824 10.419 9.0146 10.4914 8.88716C10.5364 8.8047 10.6364 8.76971 10.7538 8.81469Z" fill="#8C97A2"/>
</svg>
