<svg width="21" height="22" viewBox="0 0 21 22" fill="none" xmlns="http://www.w3.org/2000/svg">
<path fill-rule="evenodd" clip-rule="evenodd" d="M20.6271 11.1089C20.6271 11.8368 20.5481 12.5452 20.3962 13.2293C20.7827 13.9961 21 14.8591 21 15.7732C21 18.9354 18.3997 21.5 15.1919 21.5C14.198 21.5 13.2645 21.2529 12.4459 20.8196C11.8508 20.9279 11.2384 20.9851 10.6111 20.9851C5.07961 20.9851 0.595132 16.5643 0.595132 11.1089C0.595132 10.4298 0.66551 9.76517 0.797625 9.12493C0.291392 8.27291 0 7.28456 0 6.22805C0 3.06338 2.60031 0.5 5.80932 0.5C6.94403 0.5 8.00341 0.822553 8.89858 1.3788C9.45667 1.28386 10.0283 1.23396 10.6111 1.23396C16.1439 1.23396 20.6271 5.65597 20.6271 11.1089ZM13.7122 17.3506C14.6012 16.9879 15.2853 16.4767 15.7483 15.8292C16.2125 15.1804 16.4496 14.4391 16.4496 13.6261C16.4496 12.9457 16.3125 12.3614 16.0421 11.8855C15.7717 11.4132 15.3927 11.0189 14.9136 10.7109C14.442 10.4079 13.8666 10.1498 13.1986 9.94045C12.5405 9.73232 11.796 9.53878 10.9848 9.36838C10.3439 9.22232 9.87722 9.10912 9.59941 9.03244C9.32777 8.95941 9.05613 8.85473 8.79314 8.72449C8.53879 8.59791 8.33753 8.44941 8.19677 8.27657C8.06096 8.1159 7.99552 7.92724 7.99552 7.70328C7.99552 7.33569 8.19924 7.02531 8.61658 6.75631C9.04996 6.47514 9.63521 6.33395 10.3513 6.33395C11.1255 6.33395 11.6873 6.46054 12.0244 6.71371C12.3713 6.97419 12.6738 7.34299 12.9233 7.81039C13.1393 8.17554 13.3344 8.43115 13.5221 8.59547C13.7221 8.77074 14.0135 8.86082 14.3839 8.86082C14.7914 8.86082 15.1383 8.71841 15.4124 8.43602C15.6853 8.15729 15.8236 7.83595 15.8236 7.48297C15.8236 7.1166 15.7174 6.73805 15.51 6.35708C15.305 5.97975 14.9766 5.61825 14.5358 5.27744C14.0987 4.94028 13.5431 4.66763 12.8825 4.46558C12.2256 4.26353 11.4391 4.16129 10.5452 4.16129C9.42531 4.16129 8.43754 4.31465 7.60658 4.61773C6.76327 4.92324 6.10887 5.3736 5.66191 5.94932C5.21 6.5287 4.98158 7.2018 4.98158 7.94671C4.98158 8.72936 5.20013 9.39516 5.62981 9.92707C6.05331 10.4492 6.63239 10.8667 7.351 11.1674C8.05231 11.4631 8.93513 11.7224 9.976 11.9415C10.7403 12.0997 11.3576 12.2519 11.8132 12.3906C12.2491 12.527 12.6084 12.7217 12.8825 12.9724C13.1418 13.2135 13.269 13.5202 13.269 13.9085C13.269 14.4026 13.027 14.8067 12.5269 15.1415C12.017 15.4847 11.3379 15.66 10.5094 15.66C9.90809 15.66 9.41791 15.5723 9.0549 15.4044C8.69436 15.2352 8.41161 15.0197 8.21406 14.7617C8.01033 14.4976 7.81772 14.1592 7.63992 13.7575C7.48064 13.3912 7.28309 13.1051 7.0522 12.9116C6.81143 12.7108 6.51386 12.6097 6.17061 12.6097C5.75081 12.6097 5.39891 12.7375 5.12481 12.9931C4.84823 13.25 4.70748 13.564 4.70748 13.9243C4.70748 14.5049 4.92232 15.1049 5.34829 15.7087C5.76933 16.31 6.32371 16.7944 6.99663 17.1522C7.93872 17.6452 9.14503 17.8947 10.5835 17.8947C11.7824 17.8947 12.8344 17.7109 13.7122 17.3506Z" fill="#0F0F17"/>
</svg>
