<svg width="32" height="33" viewBox="0 0 32 33" fill="none" xmlns="http://www.w3.org/2000/svg">
<g clip-path="url(#clip0)">
<path d="M16 32.5C24.8366 32.5 32 25.3366 32 16.5C32 7.66344 24.8366 0.5 16 0.5C7.16344 0.5 0 7.66344 0 16.5C0 25.3366 7.16344 32.5 16 32.5Z" fill="#0F0F17"/>
<path d="M24 19.808C22.274 19.808 20.628 19.432 19.11 18.69C18.872 18.576 18.596 18.558 18.344 18.644C18.092 18.732 17.886 18.916 17.77 19.154L17.05 20.644C14.89 19.404 13.098 17.61 11.856 15.45L13.348 14.73C13.588 14.614 13.77 14.408 13.858 14.156C13.944 13.904 13.928 13.628 13.812 13.39C13.068 11.874 12.692 10.228 12.692 8.5C12.692 7.948 12.244 7.5 11.692 7.5H8C7.448 7.5 7 7.948 7 8.5C7 17.874 14.626 25.5 24 25.5C24.552 25.5 25 25.052 25 24.5V20.808C25 20.256 24.552 19.808 24 19.808Z" fill="#F2F2F2"/>
</g>
<defs>
<clipPath id="clip0">
<rect width="32" height="32" fill="white" transform="translate(0 0.5)"/>
</clipPath>
</defs>
</svg>
