<svg width="39" height="12" viewBox="0 0 39 12" fill="none" xmlns="http://www.w3.org/2000/svg">
<path d="M16.0743 0L14.1499 11.9759H17.2259L19.1492 0H16.0743ZM25.3529 4.87833C24.2779 4.3475 23.6189 3.98922 23.6189 3.4463C23.6321 2.95265 24.1762 2.44692 25.3913 2.44692C26.3906 2.42182 27.1252 2.65668 27.6824 2.89036L27.9616 3.01495L28.3798 0.509282C27.7722 0.274421 26.8088 0.0156393 25.6189 0.0156393C22.5812 0.0156393 20.4422 1.595 20.4289 3.85385C20.4038 5.52075 21.9603 6.44574 23.1252 7.00062C24.3151 7.56984 24.7202 7.93889 24.7202 8.44462C24.707 9.22109 23.758 9.57937 22.8724 9.57937C21.6454 9.57937 20.9863 9.39484 19.9858 8.96218L19.5807 8.77766L19.1505 11.3816C19.8731 11.7028 21.202 11.9855 22.5813 12C25.8096 12 27.9102 10.4446 27.9366 8.03719C27.9471 6.71661 27.1264 5.70514 25.3529 4.87833ZM36.2658 0.0370623H33.8859C33.1526 0.0370623 32.5953 0.248004 32.2778 1.00056L27.7086 11.9759H30.9368L31.8259 9.59974H35.4377L35.899 11.9855H38.7463L36.2658 0.0370623ZM32.7212 7.20171C32.7835 7.20775 33.9603 3.32275 33.9603 3.32275L34.8974 7.20171C34.8974 7.20171 33.3288 7.20171 32.7212 7.20171ZM11.5795 0L8.56575 8.13655L8.23745 6.53195C7.6802 4.68053 5.93313 2.66864 3.9834 1.66926L6.74312 11.964H9.99779L14.8342 0.00131355H11.5795V0Z" fill="#C3CBD9"/>
<path d="M7.22359 1.54532C6.98873 0.632156 6.23972 0.0162861 5.22247 0.00314331H0.449545L0.400391 0.22473C4.1236 1.14262 7.24869 3.967 8.26252 6.62368L7.22359 1.54532Z" fill="#8C97A2"/>
</svg>
