<svg width="350" height="256" viewBox="0 0 350 256" fill="none" xmlns="http://www.w3.org/2000/svg">
<path d="M269.309 21.6392L328.585 80.9146C354.472 106.802 354.472 149.199 328.585 175.085L269.309 234.361C243.422 260.248 201.025 260.248 175.139 234.361L115.863 175.085C89.9762 149.199 89.9762 106.802 115.863 80.9146L175.139 21.6392C201.059 -4.24774 243.422 -4.24774 269.309 21.6392ZM237.394 47.5596L302.698 112.863C311.037 121.202 311.037 134.832 302.698 143.171L237.394 208.474C229.056 216.813 215.426 216.813 207.087 208.474L141.784 143.171C133.445 134.832 133.445 121.202 141.784 112.863L207.087 47.5596C215.426 39.2209 229.056 39.2209 237.394 47.5596Z" stroke="white" stroke-width="3" stroke-miterlimit="22.9256"/>
<path fill-rule="evenodd" clip-rule="evenodd" d="M172.861 21.6392L174 22.7778L145.066 51.7123L140.913 47.5596C132.574 39.2209 118.944 39.2209 110.606 47.5596L45.3022 112.863C36.9634 121.202 36.9634 134.832 45.3022 143.171L110.606 208.474C118.944 216.813 132.574 216.813 140.913 208.474L206.216 143.171C214.555 134.832 214.555 121.202 206.216 112.863L174 80.6467L202.935 51.7123L232.137 80.9146C258.024 106.802 258.024 149.199 232.137 175.085L172.861 234.361C146.975 260.248 104.578 260.248 78.6906 234.361L19.4152 175.085C-6.47173 149.199 -6.47173 106.802 19.4152 80.9146L78.6906 21.6392C104.611 -4.24774 146.975 -4.24774 172.861 21.6392Z" fill="white"/>
</svg>
